<svg width="16" height="17" viewBox="0 0 16 17" fill="none" xmlns="http://www.w3.org/2000/svg">
<path fill-rule="evenodd" clip-rule="evenodd" d="M8 16.0396C12.4183 16.0396 16 12.4578 16 8.03955C16 3.62127 12.4183 0.0395508 8 0.0395508C3.58172 0.0395508 0 3.62127 0 8.03955C0 12.4578 3.58172 16.0396 8 16.0396ZM6.9237 9.65494V10.2483H8.77108V9.72087C8.77108 9.47911 8.80857 9.2923 8.88353 9.16043C8.9585 9.02856 9.09772 8.91867 9.3012 8.83076L9.62249 8.66593C10.0187 8.47911 10.3989 8.25384 10.7631 7.9901C11.1272 7.72636 11.4217 7.3857 11.6466 6.96812C11.8822 6.55054 12 6.01757 12 5.36922C12 4.72087 11.8286 4.14944 11.4859 3.65494C11.1539 3.14944 10.6934 2.75384 10.1044 2.46812C9.5154 2.18241 8.8407 2.03955 8.08032 2.03955C7.30924 2.03955 6.61312 2.18241 5.99197 2.46812C5.38153 2.75384 4.89424 3.16592 4.53012 3.70439C4.17671 4.24285 4 4.8912 4 5.64944V6.06153H5.81526V5.63296C5.81526 5.18241 5.917 4.81428 6.12048 4.52856C6.32396 4.23186 6.59705 4.01208 6.93976 3.86922C7.28246 3.72636 7.66265 3.65494 8.08032 3.65494C8.48728 3.65494 8.84605 3.72636 9.15663 3.86922C9.47791 4.00109 9.72958 4.1934 9.91165 4.44614C10.0937 4.69889 10.1847 5.00658 10.1847 5.36922C10.1847 5.86373 10.0455 6.25384 9.76707 6.53955C9.48862 6.82526 9.09772 7.089 8.59438 7.33076L8.25703 7.47911C7.7751 7.70988 7.4324 7.99559 7.22892 8.33625C7.02543 8.67691 6.9237 9.11647 6.9237 9.65494ZM6.90763 13.6439C7.17537 13.9077 7.50201 14.0396 7.88755 14.0396C8.2838 14.0396 8.61044 13.9077 8.86747 13.6439C9.13521 13.3802 9.26908 13.0396 9.26908 12.622C9.26908 12.2044 9.13521 11.8637 8.86747 11.6C8.61044 11.3363 8.2838 11.2044 7.88755 11.2044C7.50201 11.2044 7.17537 11.3363 6.90763 11.6C6.63989 11.8637 6.50602 12.2044 6.50602 12.622C6.50602 13.0396 6.63989 13.3802 6.90763 13.6439Z" fill="white"/>
</svg>
