<svg width="24" height="20" viewBox="0 0 24 20" fill="none" xmlns="http://www.w3.org/2000/svg">
<path fill-rule="evenodd" clip-rule="evenodd" d="M18.7821 5.72665H18.8678C19.542 5.72676 20.2096 5.85991 20.8323 6.11845C21.4549 6.377 22.0205 6.75587 22.4965 7.23335C23.4593 8.19835 24 9.50583 24 10.869C24 12.2321 23.4593 13.5396 22.4965 14.5046C22.0205 14.9821 21.4549 15.3609 20.8323 15.6195C20.2096 15.878 19.542 16.0112 18.8678 16.0113H15.4481V14.2972H18.8678C19.7505 14.2577 20.5839 13.8793 21.1946 13.2407C21.8052 12.6021 22.146 11.7525 22.146 10.869C22.146 9.98539 21.8052 9.13586 21.1946 8.49727C20.5839 7.85868 19.7505 7.48024 18.8678 7.44076H17.3011L17.0902 5.97177C16.9616 5.05142 16.5361 4.19821 15.8784 3.54172C15.2206 2.88523 14.3666 2.46134 13.446 2.33443C12.5249 2.20861 11.5879 2.38846 10.7789 2.84641C9.9698 3.30435 9.33333 4.0151 8.96708 4.8696L8.39628 6.17575L7.00957 5.85178C6.6926 5.77316 6.36765 5.73117 6.0411 5.72665C4.90636 5.72665 3.81791 6.17746 3.01742 6.98138C2.42086 7.58122 2.01495 8.34405 1.85072 9.17395C1.68649 10.0038 1.77128 10.8638 2.09442 11.6456C2.41757 12.4275 2.96464 13.0963 3.66686 13.5681C4.36909 14.0399 5.19512 14.2936 6.0411 14.2972H10.3161V16.0113H6.0411C5.19208 16.0189 4.35118 15.8455 3.57443 15.5027C2.79768 15.1598 2.10292 14.6554 1.53643 14.0229C0.679903 13.0691 0.151248 11.866 0.02787 10.59C-0.0955078 9.31398 0.192873 8.03196 0.850788 6.93167C1.28654 6.2027 1.87223 5.57465 2.56904 5.08913C3.26585 4.60361 4.05788 4.2717 4.89265 4.11539C5.72571 3.96112 6.58447 3.9834 7.40896 4.18567C7.92848 2.9961 8.82124 2.00807 9.95221 1.37099C11.0832 0.733907 12.3909 0.482437 13.6774 0.65461C14.9646 0.828782 16.1596 1.41842 17.081 2.33391C18.0024 3.2494 18.5996 4.44067 18.7821 5.72665ZM15.9315 12.3311L13.6792 10.0805V19.3984H11.9753V10.1422L9.78471 12.3328L8.57284 11.1192L12.2513 7.44076H13.4649L17.1434 11.1192L15.9315 12.3311Z" fill="white"/>
</svg>
