<svg width="1920" height="876" viewBox="0 0 1920 876" fill="none" xmlns="http://www.w3.org/2000/svg">
<g filter="url(#filter0_f_539_14759)">
<path d="M868.279 414.151C899.786 395.283 1020.21 395.283 1051.72 414.151L1231.77 521.974C1241.68 527.906 1262.79 532.582 1289.55 534.777L1776.14 574.676C1861.29 581.657 1861.29 608.343 1776.14 615.324L1289.55 655.223C1262.79 657.418 1241.68 662.094 1231.77 668.026L1051.72 775.849C1020.21 794.717 899.786 794.717 868.279 775.849L688.226 668.026C678.321 662.094 657.215 657.418 630.445 655.223L143.859 615.324C58.7137 608.343 58.7137 581.657 143.859 574.676L630.445 534.777C657.215 532.582 678.321 527.906 688.226 521.974L868.279 414.151Z" fill="#2CE3FF"/>
</g>
<defs>
<filter id="filter0_f_539_14759" x="-320" y="0" width="2560" height="1190" filterUnits="userSpaceOnUse" color-interpolation-filters="sRGB">
<feFlood flood-opacity="0" result="BackgroundImageFix"/>
<feBlend mode="normal" in="SourceGraphic" in2="BackgroundImageFix" result="shape"/>
<feGaussianBlur stdDeviation="200" result="effect1_foregroundBlur_539_14759"/>
</filter>
</defs>
</svg>
