<svg width="95" height="34" viewBox="0 0 95 34" fill="none" xmlns="http://www.w3.org/2000/svg">
<path d="M0.799805 0V26.5313L4.19425 26.5444V13.9105H12.354V10.5678H4.18119V3.32957H14.8215V0H0.799805ZM20.9054 5.39575C21.494 5.39575 22.0585 5.16004 22.4747 4.74047C22.891 4.3209 23.1248 3.75184 23.1248 3.15849C23.1248 2.56513 22.891 1.99607 22.4747 1.5765C22.0585 1.15694 21.494 0.921225 20.9054 0.921225C20.3167 0.921225 19.7522 1.15694 19.336 1.5765C18.9198 1.99607 18.6859 2.56513 18.6859 3.15849C18.6859 3.75184 18.9198 4.3209 19.336 4.74047C19.7522 5.16004 20.3167 5.39575 20.9054 5.39575ZM19.1951 8.72532V26.5444H22.5895V8.72532H19.1951Z" fill="white"/>
<path fill-rule="evenodd" clip-rule="evenodd" d="M35.1359 8.21205C30.6448 8.21205 27.5114 12.0417 27.5114 16.5952C27.5114 21.1487 30.6448 24.9783 35.1359 24.9783C37.1987 24.9783 38.8959 24.1887 40.1362 22.8727V25.2416C40.1448 25.9494 40.0141 26.6519 39.7518 27.3085C39.4894 27.9651 39.1006 28.5627 38.6077 29.0669C38.1148 29.5711 37.5277 29.9718 36.8802 30.2459C36.2327 30.52 35.5378 30.6619 34.8356 30.6636C33.752 30.6636 32.6814 30.2425 31.8328 29.6371L30.1356 32.5982C31.448 33.4533 32.965 33.9355 34.5266 33.994C36.0882 34.0524 37.6365 33.6849 39.0081 32.9302C40.3798 32.1756 41.524 31.0617 42.3199 29.7061C43.1159 28.3506 43.5342 26.8036 43.5306 25.2284V8.73846H40.1362V10.3309C38.8959 9.01483 37.1987 8.22521 35.1359 8.22521V8.21205ZM30.8928 16.5952C30.8928 13.7657 33.0339 11.5416 35.5145 11.5416C37.995 11.5416 40.1231 13.7789 40.1231 16.5952C40.1231 19.4247 37.982 21.6356 35.5145 21.6356C33.0339 21.6356 30.8928 19.4247 30.8928 16.5952Z" fill="white"/>
<path d="M55.7245 11.5417C54.7537 11.559 53.8286 11.9608 53.1494 12.6602C52.4702 13.3597 52.0914 14.3005 52.095 15.2792V26.5445H48.7006V8.72538H52.095V10.3573C52.6029 9.67878 53.2626 9.13082 54.0203 8.75805C54.7781 8.38527 55.6125 8.19822 56.4556 8.21213C58.8317 8.21213 60.6595 9.39656 61.7039 11.2127C62.2866 10.3023 63.0841 9.55163 64.0251 9.02799C64.966 8.50435 66.0211 8.22404 67.0959 8.21213C70.9472 8.21213 73.3625 11.3443 73.3625 15.2266V26.5445H69.9942V15.2661C69.9978 14.2873 69.619 13.3465 68.9398 12.6471C68.2606 11.9476 67.3356 11.5458 66.3647 11.5285C65.3939 11.5458 64.4689 11.9476 63.7897 12.6471C63.1105 13.3465 62.7317 14.2873 62.7353 15.2661V26.5313H59.3409V15.2661C59.3445 14.2896 58.9675 13.3507 58.2911 12.6516C57.6147 11.9525 56.693 11.5492 55.7245 11.5285V11.5417Z" fill="white"/>
<path fill-rule="evenodd" clip-rule="evenodd" d="M91.4184 10.752C90.6476 9.94184 89.7209 9.2987 88.695 8.86197C87.6691 8.42524 86.5656 8.2041 85.452 8.2121C80.4126 8.2121 76.8354 12.5024 76.8354 17.6349C76.8354 22.7675 80.4126 27.0577 85.452 27.0577C86.5653 27.0634 87.6681 26.8412 88.6937 26.4046C89.7192 25.9681 90.6462 25.3261 91.4184 24.5178V26.5445H94.7998V8.72535H91.4054V10.752H91.4184ZM80.2168 17.6349C80.2168 14.2395 82.8018 11.5417 85.8176 11.5417C88.8204 11.5417 91.4184 14.2395 91.4184 17.6349C91.4184 21.0303 88.8334 23.715 85.8176 23.715C82.8148 23.715 80.2168 21.0303 80.2168 17.6349Z" fill="white"/>
</svg>
