<svg width="195" height="48" viewBox="0 0 195 48" fill="none" xmlns="http://www.w3.org/2000/svg">
<g clip-path="url(#clip0_667_34036)">
<path d="M18.4438 12.8601C18.3321 12.7057 18.2051 12.6243 18.0635 12.6243C17.947 12.6243 17.841 12.6786 17.7722 12.7252C16.6993 13.6091 15.2315 17.3508 14.0283 22.2826L15.0931 22.2953C17.1969 22.3199 19.3686 22.3462 21.5161 22.381C20.9505 20.122 20.4149 18.1863 19.9245 16.623C19.2076 14.3386 18.7238 13.3156 18.4438 12.8601Z" fill="white"/>
<path d="M20.8312 3.35205C9.70388 3.35205 0.683594 12.8085 0.683594 24.4737C0.683594 36.139 9.70388 45.5954 20.8312 45.5954C31.9584 45.5954 40.9787 36.139 40.9787 24.4737C40.9787 12.8085 31.9584 3.35205 20.8312 3.35205ZM35.3188 24.8571C35.3172 24.8588 35.3156 24.8597 35.3139 24.8614C35.2921 24.88 35.2703 24.897 35.2468 24.914C35.2395 24.9191 35.2322 24.925 35.2241 24.9301C35.2088 24.9403 35.1926 24.9505 35.1772 24.9598C35.1626 24.9691 35.1481 24.9776 35.1335 24.9861C35.1327 24.9869 35.1319 24.9869 35.1311 24.9878C34.983 25.0692 34.8139 25.1159 34.6351 25.1159C34.6205 25.1159 25.0913 25.1159 25.0913 25.1159C25.1673 25.4475 25.2507 25.8242 25.3413 26.2339C25.864 28.6014 27.2541 34.8912 28.73 34.8912L28.7591 34.8921L28.7753 34.8895H28.8036C29.9566 34.8895 30.5449 33.1421 31.8346 29.3131L31.85 29.2664C32.0572 28.6514 32.291 27.9575 32.5443 27.2238L32.609 27.0363H32.6098C32.6753 26.8531 32.8436 26.7225 33.0419 26.7225C33.2968 26.7225 33.5039 26.9396 33.5039 27.2068C33.5039 27.2552 33.4966 27.3018 33.4845 27.3459L33.4311 27.5343C33.2968 27.9898 33.1535 28.6107 32.9885 29.3292C32.2198 32.6688 31.0587 37.7142 28.0794 37.7142H28.0576C26.1326 37.6981 24.9804 34.4722 24.4885 33.0946C23.5685 30.5184 22.8726 27.7735 22.201 25.115H13.4154L11.5916 31.2344L11.5649 31.2123C11.3982 31.4871 11.1053 31.6636 10.7825 31.6636C10.2735 31.6636 9.85681 31.2293 9.85438 30.6957L9.856 30.6626L9.96604 29.9705C10.2177 28.3978 10.5195 26.7657 10.8642 25.1159H7.15509L7.14133 25.1014C6.46813 24.9997 5.95109 24.377 5.95109 23.6509C5.95109 22.9392 6.43172 22.3327 7.0936 22.2097C7.15428 22.2012 7.27727 22.1902 7.52729 22.1902C7.5807 22.1902 7.64057 22.1902 7.70773 22.1919C8.88341 22.2131 10.1311 22.2326 11.4994 22.2513C13.4356 14.0028 15.6786 9.81579 18.1667 9.80392C20.836 9.80392 22.8168 16.1761 24.4019 22.4099L24.4084 22.4345C27.6652 22.5032 31.1364 22.6025 34.5113 22.8561L34.6529 22.8697C34.7071 22.8705 34.7605 22.8765 34.8123 22.8849L34.8317 22.8866C34.8374 22.8875 34.843 22.8892 34.8487 22.8909C34.8519 22.8917 34.8544 22.8926 34.8576 22.8926C35.3487 22.9961 35.7129 23.4473 35.7129 23.9902C35.7129 24.338 35.5591 24.651 35.3188 24.8571Z" fill="white"/>
<path d="M52.1595 29.7584L50.5623 33.8962H45.9219L54.7512 12.2902H58.8495L67.6481 33.8971H63.0376L61.4404 29.7592H52.1595V29.7584ZM56.77 17.7547L53.7568 25.6206H59.8431L56.77 17.7547Z" fill="white"/>
<path d="M93.8021 25.5892V33.8971H89.614V25.9684C89.614 23.5678 88.499 22.2725 86.5409 22.2725C85.667 22.2725 84.7025 22.6831 83.8286 23.947C83.8893 24.4839 83.9492 25.0209 83.9492 25.5892V33.8971H79.7611V25.9684C79.7611 23.5678 78.6461 22.2725 76.6572 22.2725C75.844 22.2725 74.9394 22.7781 74.0963 23.9784V33.8971H69.9082V18.7658H74.0963V19.6819C75.0001 18.7972 75.9646 18.2916 77.6517 18.2916C79.49 18.2916 81.1164 19.05 82.2621 20.4394C83.7987 18.955 85.2454 18.2916 87.5054 18.2916C91.03 18.2916 93.8021 21.1664 93.8021 25.5892Z" fill="white"/>
<path d="M112.212 26.3466C112.212 30.7372 109.018 34.2117 105.04 34.2117C103.413 34.2117 102.057 33.7698 100.943 33.0114V41.1929H96.7549V18.7649H100.943V19.6496C102.058 18.8913 103.414 18.4493 105.04 18.4493C109.017 18.4502 112.212 21.8933 112.212 26.3466ZM108.084 26.3466C108.084 24.1038 106.517 22.1452 104.347 22.1452C103.111 22.1452 101.876 22.5872 100.942 23.9138V28.7472C101.876 30.0425 103.111 30.4845 104.347 30.4845C106.516 30.4853 108.084 28.5581 108.084 26.3466Z" fill="white"/>
<path d="M118.751 33.8961H114.562V11.469H118.751V33.8961Z" fill="white"/>
<path d="M122.518 13.4276C122.518 11.9432 123.633 10.837 125.049 10.837C126.435 10.837 127.55 11.9423 127.55 13.4276C127.55 14.8807 126.435 15.9546 125.049 15.9546C123.633 15.9546 122.518 14.8807 122.518 13.4276ZM127.158 18.7657V33.897H122.97V18.7657H127.158Z" fill="white"/>
<path d="M142.373 33.6754C140.625 34.2438 139.842 34.3702 138.486 34.3702C134.99 34.3702 132.7 31.7796 132.7 27.8632V22.4615H129.657V18.7656H132.7V13.3639H136.858V18.7656H142.071V22.4615H136.858V27.8318C136.858 29.5376 137.853 30.3274 139.389 30.3274C140.173 30.3274 141.017 30.1382 141.83 29.9168L142.373 33.6754Z" fill="white"/>
<path d="M159.186 33.8962H154.998V32.8223C153.823 33.8012 152.497 34.3703 150.869 34.3703C147.073 34.3703 144.542 31.4956 144.542 27.105V18.7657H148.73V26.6944C148.73 29.095 149.875 30.3903 151.834 30.3903C152.888 30.3903 154.033 29.727 154.998 28.4953V18.7657H159.186V33.8962Z" fill="white"/>
<path d="M176.964 33.896H172.776V33.0113C171.661 33.7696 170.305 34.2116 168.678 34.2116C164.7 34.2116 161.477 30.7685 161.477 26.3143C161.477 21.9237 164.701 18.4484 168.678 18.4484C170.305 18.4484 171.661 18.8903 172.776 19.6486V11.4689H176.964V33.896ZM172.775 28.7479V23.9145C171.842 22.6193 170.606 22.1773 169.37 22.1773C167.171 22.1773 165.634 24.1046 165.634 26.3151C165.634 28.5579 167.17 30.5166 169.37 30.5166C170.606 30.5166 171.842 30.0746 172.775 28.7479Z" fill="white"/>
<path d="M193.958 27.4528H183.322C183.653 29.2215 184.768 30.6118 187.058 30.6118C188.233 30.6118 189.047 30.2326 189.499 29.4742H193.868C193.085 32.3804 190.372 34.3704 186.968 34.3704C182.327 34.3704 179.193 30.8645 179.193 26.3467C179.193 21.6719 182.297 18.2916 186.847 18.2916C190.975 18.2916 194.048 21.3555 194.048 26.0311C194.048 26.6631 194.018 27.01 193.958 27.4528ZM183.352 24.8622H189.89C189.649 22.9672 188.564 21.9247 186.877 21.9247C184.858 21.9247 183.743 23.1564 183.352 24.8622Z" fill="white"/>
</g>
<defs>
<clipPath id="clip0_667_34036">
<rect width="194" height="48" fill="white" transform="translate(0.199219)"/>
</clipPath>
</defs>
</svg>
