<svg width="111" height="48" viewBox="0 0 111 48" fill="none" xmlns="http://www.w3.org/2000/svg">
<g clip-path="url(#clip0_667_34050)">
<path fill-rule="evenodd" clip-rule="evenodd" d="M68.3343 37.8069C61.9708 42.4973 52.7472 44.9998 44.8058 44.9998C33.6708 44.9998 23.6464 40.8814 16.0625 34.0316C15.4667 33.493 16.0005 32.7589 16.7156 33.1784C24.9 37.9403 35.0198 40.8051 45.4732 40.8051C52.5231 40.8051 60.2786 39.3465 67.4096 36.3196C68.4869 35.862 69.3878 37.0251 68.3343 37.8069Z" fill="white"/>
<path fill-rule="evenodd" clip-rule="evenodd" d="M70.9799 34.78C70.1696 33.7409 65.6031 34.2891 63.5534 34.5322C62.929 34.6084 62.8337 34.065 63.3961 33.6741C67.0331 31.1144 73.001 31.8533 73.697 32.7113C74.3929 33.574 73.5158 39.5563 70.0981 42.4115C69.5738 42.8501 69.0733 42.6165 69.3068 42.035C70.0743 40.1187 71.795 35.8239 70.9799 34.78Z" fill="white"/>
<path fill-rule="evenodd" clip-rule="evenodd" d="M63.6967 15.6036V13.1154C63.6967 12.7388 63.9827 12.4862 64.3259 12.4862H75.4657C75.8232 12.4862 76.1092 12.7436 76.1092 13.1154V15.2461C76.1045 15.6036 75.8042 16.0708 75.2703 16.8096L69.4978 25.0513C71.6428 24.9988 73.907 25.3182 75.8518 26.4145C76.2904 26.6624 76.4095 27.0247 76.4429 27.3822V30.0373C76.4429 30.3995 76.0425 30.8238 75.623 30.6045C72.1958 28.8074 67.6436 28.612 63.854 30.6236C63.4679 30.8333 63.0627 30.4138 63.0627 30.0516V27.53C63.0627 27.1248 63.0675 26.4336 63.4727 25.8187L70.1604 16.2281H64.3402C63.9827 16.2281 63.6967 15.9754 63.6967 15.6036Z" fill="white"/>
<path fill-rule="evenodd" clip-rule="evenodd" d="M23.0604 31.1289H19.6713C19.3472 31.105 19.0898 30.8619 19.0659 30.5521V13.1583C19.0659 12.8104 19.3567 12.5339 19.719 12.5339H22.8793C23.2082 12.5482 23.4704 12.8008 23.4942 13.1154V15.3892H23.5562C24.3808 13.1917 25.93 12.1669 28.0178 12.1669C30.139 12.1669 31.4641 13.1917 32.4175 15.3892C33.2374 13.1917 35.1012 12.1669 37.0984 12.1669C38.5189 12.1669 40.0728 12.7532 41.0214 14.0688C42.0939 15.5322 41.8747 17.6581 41.8747 19.5219L41.8699 30.4997C41.8699 30.8476 41.5791 31.1289 41.2169 31.1289H37.8325C37.494 31.105 37.2223 30.8333 37.2223 30.4997V21.2808C37.2223 20.5468 37.2891 18.7163 37.127 18.0204C36.8744 16.8526 36.1165 16.5236 35.1345 16.5236C34.3146 16.5236 33.4566 17.0718 33.1087 17.9489C32.7607 18.826 32.7941 20.2941 32.7941 21.2808V30.4997C32.7941 30.8476 32.5033 31.1289 32.141 31.1289H28.7567C28.4135 31.105 28.1465 30.8333 28.1465 30.4997L28.1418 21.2808C28.1418 19.3408 28.4611 16.4855 26.0539 16.4855C23.6181 16.4855 23.7135 19.2693 23.7135 21.2808V30.4997C23.7135 30.8476 23.4227 31.1289 23.0604 31.1289Z" fill="white"/>
<path fill-rule="evenodd" clip-rule="evenodd" d="M85.6997 12.1669C90.7286 12.1669 93.4504 16.4855 93.4504 21.9768C93.4504 27.2821 90.4426 31.4911 85.6997 31.4911C80.7614 31.4911 78.073 27.1725 78.073 21.7909C78.073 16.3759 80.7948 12.1669 85.6997 12.1669ZM85.7283 15.7181C83.2306 15.7181 83.0733 19.1215 83.0733 21.2427C83.0733 23.3686 83.0399 27.9066 85.6997 27.9066C88.3262 27.9066 88.4501 24.2457 88.4501 22.0149C88.4501 20.5468 88.3882 18.7926 87.9449 17.4007C87.5635 16.19 86.8056 15.7181 85.7283 15.7181Z" fill="white"/>
<path fill-rule="evenodd" clip-rule="evenodd" d="M99.9714 31.1289H96.5966C96.2581 31.105 95.9865 30.8333 95.9865 30.4997L95.9817 13.1011C96.0103 12.7818 96.2915 12.5339 96.6347 12.5339H99.776C100.072 12.5482 100.315 12.7484 100.381 13.0201V15.6799H100.443C101.392 13.3013 102.722 12.1669 105.062 12.1669C106.583 12.1669 108.065 12.715 109.019 14.2166C109.905 15.6084 109.905 17.9489 109.905 19.6315V30.5807C109.867 30.8858 109.586 31.1289 109.252 31.1289H105.854C105.544 31.105 105.286 30.8762 105.253 30.5807V21.1331C105.253 19.2311 105.472 16.4474 103.132 16.4474C102.307 16.4474 101.549 17.0003 101.173 17.8393C100.696 18.9022 100.634 19.9605 100.634 21.1331V30.4997C100.629 30.8476 100.334 31.1289 99.9714 31.1289Z" fill="white"/>
<path fill-rule="evenodd" clip-rule="evenodd" d="M54.8163 22.8204C54.8163 24.1408 54.8497 25.2419 54.1824 26.4146C53.6437 27.3679 52.7857 27.9542 51.8372 27.9542C50.5358 27.9542 49.7732 26.9627 49.7732 25.4993C49.7732 22.6107 52.3615 22.0864 54.8163 22.0864V22.8204ZM58.2341 31.0812C58.01 31.2814 57.6859 31.2957 57.4333 31.1622C56.3083 30.2279 56.1034 29.7942 55.4885 28.9028C53.6294 30.7999 52.3091 31.3672 49.9019 31.3672C47.0466 31.3672 44.8301 29.6083 44.8301 26.0857C44.8301 23.3353 46.3173 21.4619 48.4432 20.5467C50.2832 19.7364 52.8525 19.5934 54.8163 19.3693V18.9308C54.8163 18.1252 54.8783 17.1719 54.4016 16.476C53.9917 15.8515 53.2004 15.5941 52.4997 15.5941C51.2079 15.5941 50.0592 16.2567 49.7779 17.6295C49.7207 17.9346 49.4967 18.2349 49.1869 18.2492L45.9026 17.8964C45.6261 17.8345 45.3163 17.6104 45.3973 17.1862C46.1505 13.2012 49.7541 12 52.9764 12C54.6257 12 56.7802 12.4385 58.0815 13.6874C59.7308 15.2271 59.5735 17.2815 59.5735 19.5171V24.7986C59.5735 26.386 60.2313 27.0819 60.851 27.9399C61.0655 28.245 61.1132 28.612 60.8367 28.8408C60.1455 29.4176 58.9157 30.4901 58.2388 31.0907L58.2341 31.0812Z" fill="white"/>
<path fill-rule="evenodd" clip-rule="evenodd" d="M10.3857 22.8204C10.3857 24.1408 10.419 25.2419 9.75171 26.4145C9.21307 27.3679 8.35982 27.9542 7.40648 27.9542C6.10517 27.9542 5.34726 26.9627 5.34726 25.4993C5.34726 22.6107 7.93559 22.0864 10.3857 22.0864V22.8204ZM13.8034 31.0812C13.5794 31.2814 13.2552 31.2957 13.0026 31.1622C11.8777 30.2279 11.6775 29.7941 11.0578 28.9028C9.19876 30.7999 7.88316 31.3672 5.4712 31.3672C2.6207 31.3672 0.399414 29.6082 0.399414 26.0856C0.399414 23.3352 1.89139 21.4619 4.01258 20.5467C5.85253 19.7364 8.42179 19.5934 10.3857 19.3693V18.9308C10.3857 18.1252 10.4476 17.1719 9.97574 16.4759C9.56104 15.8515 8.76976 15.5941 8.07382 15.5941C6.78204 15.5941 5.6285 16.2567 5.34726 17.6295C5.29006 17.9346 5.06603 18.2349 4.76096 18.2492L1.47192 17.8964C1.19545 17.8345 0.890385 17.6104 0.966652 17.1862C1.72456 13.2012 5.32343 12 8.54573 12C10.195 12 12.3496 12.4385 13.6509 13.6874C15.3002 15.2271 15.1429 17.2815 15.1429 19.5171V24.7986C15.1429 26.3859 15.8007 27.0819 16.4203 27.9399C16.6396 28.245 16.6873 28.612 16.4108 28.8408C15.7196 29.4176 14.4898 30.4901 13.8129 31.0907L13.8034 31.0812Z" fill="white"/>
</g>
<defs>
<clipPath id="clip0_667_34050">
<rect width="110" height="48" fill="white" transform="translate(0.399414)"/>
</clipPath>
</defs>
</svg>
