<svg width="129" height="40" viewBox="0 0 129 40" fill="none" xmlns="http://www.w3.org/2000/svg">
<path d="M68.1466 10.05C68.1466 11.4915 66.9854 12.6527 65.544 12.6527C64.1025 12.6527 62.9414 11.4915 62.9414 10.05C62.9414 8.60861 64.0625 7.44745 65.544 7.44745C67.0255 7.48749 68.1466 8.64865 68.1466 10.05ZM57.4158 15.2953C57.4158 15.5355 57.4158 15.9359 57.4158 15.9359C57.4158 15.9359 56.1746 14.3343 53.532 14.3343C49.1676 14.3343 45.7642 17.6577 45.7642 22.2623C45.7642 26.8268 49.1276 30.1902 53.532 30.1902C56.2146 30.1902 57.4158 28.5485 57.4158 28.5485V29.2292C57.4158 29.5495 57.6561 29.7898 57.9764 29.7898H61.2196V14.7347C61.2196 14.7347 58.2567 14.7347 57.9764 14.7347C57.6561 14.7347 57.4158 15.015 57.4158 15.2953ZM57.4158 24.9449C56.8152 25.8258 55.614 26.5866 54.1726 26.5866C51.61 26.5866 49.6481 24.985 49.6481 22.2623C49.6481 19.5395 51.61 17.9379 54.1726 17.9379C55.574 17.9379 56.8553 18.7387 57.4158 19.5796V24.9449ZM63.622 14.7347H67.4659V29.7898H63.622V14.7347ZM121.039 14.3343C118.397 14.3343 117.156 15.9359 117.156 15.9359V7.48749H113.312V29.7898C113.312 29.7898 116.275 29.7898 116.555 29.7898C116.875 29.7898 117.116 29.5095 117.116 29.2292V28.5485C117.116 28.5485 118.357 30.1902 120.999 30.1902C125.364 30.1902 128.767 26.8268 128.767 22.2623C128.767 17.6977 125.364 14.3343 121.039 14.3343ZM120.399 26.5465C118.917 26.5465 117.756 25.7858 117.156 24.9049V19.5395C117.756 18.7387 119.037 17.8979 120.399 17.8979C122.961 17.8979 124.923 19.4995 124.923 22.2222C124.923 24.9449 122.961 26.5465 120.399 26.5465ZM111.31 20.8609V29.8298H107.466V21.3013C107.466 18.8188 106.665 17.8178 104.503 17.8178C103.342 17.8178 102.141 18.4184 101.38 19.2993V29.7898H97.536V14.7347H100.579C100.899 14.7347 101.14 15.015 101.14 15.2953V15.9359C102.261 14.7748 103.742 14.3343 105.224 14.3343C106.905 14.3343 108.307 14.8148 109.428 15.7758C110.789 16.8969 111.31 18.3383 111.31 20.8609ZM88.2066 14.3343C85.564 14.3343 84.3227 15.9359 84.3227 15.9359V7.48749H80.4789V29.7898C80.4789 29.7898 83.4419 29.7898 83.7221 29.7898C84.0425 29.7898 84.2827 29.5095 84.2827 29.2292V28.5485C84.2827 28.5485 85.5239 30.1902 88.1666 30.1902C92.531 30.1902 95.9344 26.8268 95.9344 22.2623C95.9744 17.6977 92.571 14.3343 88.2066 14.3343ZM87.566 26.5465C86.0845 26.5465 84.9233 25.7858 84.3227 24.9049V19.5395C84.9233 18.7387 86.2046 17.8979 87.566 17.8979C90.1285 17.8979 92.0905 19.4995 92.0905 22.2222C92.0905 24.9449 90.1285 26.5465 87.566 26.5465ZM77.1556 14.3343C78.3167 14.3343 78.9173 14.5345 78.9173 14.5345V18.0981C78.9173 18.0981 75.7141 17.017 73.7121 19.2993V29.8298H69.8683V14.7347C69.8683 14.7347 72.8313 14.7347 73.1115 14.7347C73.4319 14.7347 73.6721 15.015 73.6721 15.2953V15.9359C74.3928 15.0951 75.9544 14.3343 77.1556 14.3343ZM37.2357 28.4284C37.0355 27.9479 36.8353 27.4274 36.6351 26.987C36.3147 26.2663 35.9944 25.5856 35.7141 24.9449L35.6741 24.9049C32.9113 18.8989 29.9484 12.8128 26.8253 6.80681L26.7051 6.56657C26.3848 5.96597 26.0645 5.32533 25.7442 4.68468C25.3438 3.96396 24.9434 3.2032 24.3027 2.48248C23.0215 0.880881 21.1796 0 19.2177 0C17.2157 0 15.4139 0.880881 14.0925 2.4024C13.4919 3.12312 13.0515 3.88388 12.6511 4.6046C12.3308 5.24525 12.0104 5.88589 11.6901 6.48649L11.57 6.72673C8.48693 12.7327 5.48392 18.8188 2.72116 24.8248L2.68112 24.9049C2.40084 25.5455 2.08052 26.2262 1.7602 26.9469C1.56 27.3874 1.3598 27.8679 1.1596 28.3884C0.63908 29.8699 0.47892 31.2713 0.67912 32.7127C1.11956 35.7157 3.12156 38.2382 5.88432 39.3594C6.92536 39.7998 8.00645 40 9.12757 40C9.44789 40 9.84829 39.96 10.1686 39.9199C11.4899 39.7598 12.8513 39.3193 14.1726 38.5586C15.8143 37.6376 17.3758 36.3163 19.1376 34.3944C20.8993 36.3163 22.5009 37.6376 24.1025 38.5586C25.4239 39.3193 26.7852 39.7598 28.1065 39.9199C28.4269 39.96 28.8273 40 29.1476 40C30.2687 40 31.3898 39.7998 32.3908 39.3594C35.1936 38.2382 37.1556 35.6757 37.596 32.7127C37.9163 31.3113 37.7562 29.9099 37.2357 28.4284ZM19.1776 30.5105C17.0155 27.7878 15.6141 25.2252 15.1336 23.0631C14.9334 22.1421 14.8933 21.3413 15.0135 20.6206C15.0935 19.98 15.3338 19.4194 15.6541 18.9389C16.4149 17.8579 17.6961 17.1772 19.1776 17.1772C20.6591 17.1772 21.9804 17.8178 22.7011 18.9389C23.0215 19.4194 23.2617 19.98 23.3418 20.6206C23.4619 21.3413 23.4219 22.1822 23.2217 23.0631C22.7412 25.1852 21.3398 27.7477 19.1776 30.5105ZM35.1536 32.3924C34.8733 34.4745 33.4719 36.2763 31.5099 37.0771C30.549 37.4775 29.5079 37.5976 28.4669 37.4775C27.4659 37.3574 26.4649 37.037 25.4239 36.4364C23.9824 35.6356 22.541 34.3944 20.8593 32.5526C23.5019 29.3093 25.1035 26.3463 25.7041 23.7037C25.9844 22.4625 26.0245 21.3413 25.9043 20.3003C25.7442 19.2993 25.3838 18.3784 24.8233 17.5776C23.582 15.7758 21.4999 14.7347 19.1776 14.7347C16.8553 14.7347 14.7732 15.8158 13.532 17.5776C12.9714 18.3784 12.611 19.2993 12.4509 20.3003C12.2907 21.3413 12.3308 22.5025 12.6511 23.7037C13.2517 26.3463 14.8933 29.3493 17.4959 32.5926C15.8543 34.4344 14.3728 35.6757 12.9314 36.4765C11.8903 37.0771 10.8893 37.3974 9.88833 37.5175C8.80725 37.6376 7.76621 37.4775 6.84528 37.1171C4.88332 36.3163 3.48192 34.5145 3.20164 32.4324C3.08152 31.4314 3.1616 30.4304 3.562 29.3093C3.68212 28.9089 3.88232 28.5085 4.08252 28.028C4.3628 27.3874 4.68312 26.7067 5.00344 26.026L5.04348 25.9459C7.80625 19.98 10.7692 13.8939 13.8523 7.96797L13.9724 7.72773C14.2927 7.12713 14.6131 6.48649 14.9334 5.88589C15.2537 5.24524 15.6141 4.64464 16.0545 4.12412C16.8953 3.16316 18.0165 2.64264 19.2577 2.64264C20.4989 2.64264 21.6201 3.16316 22.4609 4.12412C22.9013 4.64464 23.2617 5.24524 23.582 5.88589C23.9023 6.48649 24.2227 7.12713 24.543 7.72773L24.6631 7.96797C27.7061 13.9339 30.6691 20.02 33.4319 25.986V26.026C33.7522 26.6667 34.0325 27.3874 34.3528 28.028C34.553 28.5085 34.7532 28.9089 34.8733 29.3093C35.1936 30.3503 35.3137 31.3514 35.1536 32.3924Z" fill="white"/>
</svg>
