<svg width="155" height="48" viewBox="0 0 155 48" fill="none" xmlns="http://www.w3.org/2000/svg">
<g clip-path="url(#clip0_667_34080)">
<path d="M62.3093 25.6624L59.6322 18.6559C59.523 18.3694 59.1055 18.3694 58.996 18.6559L56.3193 25.6628C56.3003 25.7126 56.294 25.7662 56.3009 25.8188C56.3078 25.8715 56.3278 25.9218 56.359 25.9654C56.3903 26.009 56.4319 26.0446 56.4804 26.0692C56.5289 26.0938 56.5828 26.1066 56.6375 26.1066H61.9911C62.0458 26.1066 62.0997 26.0937 62.1482 26.0691C62.1967 26.0445 62.2383 26.0089 62.2696 25.9653C62.3008 25.9216 62.3207 25.8713 62.3276 25.8186C62.3345 25.7659 62.3281 25.7124 62.3091 25.6626L62.3093 25.6624ZM63.546 29.6006H55.0829C55.0137 29.6006 54.9461 29.6212 54.8892 29.6596C54.8324 29.698 54.789 29.7523 54.7649 29.8154L53.0988 34.175C53.0747 34.238 53.0313 34.2923 52.9744 34.3307C52.9176 34.3691 52.85 34.3897 52.7808 34.3897H49.1126C49.0572 34.3897 49.0026 34.3765 48.9536 34.3512C48.9046 34.326 48.8627 34.2895 48.8317 34.2449C48.8006 34.2003 48.7813 34.149 48.7754 34.0954C48.7695 34.0419 48.7772 33.9878 48.7978 33.9378L57.243 13.5118C57.2683 13.4507 57.3118 13.3985 57.3679 13.3617C57.4241 13.3249 57.4903 13.3053 57.558 13.3053H61.0704C61.2088 13.3053 61.3334 13.387 61.3852 13.5118L69.8302 33.9376C69.8509 33.9876 69.8587 34.0418 69.8528 34.0953C69.8469 34.1489 69.8276 34.2003 69.7965 34.245C69.7655 34.2896 69.7236 34.3262 69.6745 34.3515C69.6255 34.3767 69.5709 34.3899 69.5154 34.3899H65.8479C65.7786 34.3899 65.711 34.3693 65.6542 34.3309C65.5973 34.2924 65.5539 34.238 65.5299 34.175L63.8635 29.8154C63.8394 29.7523 63.796 29.698 63.7392 29.6596C63.6823 29.6212 63.6148 29.6006 63.5455 29.6006H63.546ZM71.5488 20.4739H74.6862C74.7761 20.4739 74.8624 20.5086 74.926 20.5703C74.9897 20.6321 75.0254 20.7159 75.0254 20.8032V34.0603C75.0254 34.1477 74.9897 34.2315 74.926 34.2932C74.8624 34.355 74.7761 34.3897 74.6862 34.3897H71.5488C71.4588 34.3897 71.3725 34.355 71.3089 34.2932C71.2453 34.2315 71.2096 34.1477 71.2096 34.0603V20.803C71.2096 20.7157 71.2453 20.6319 71.3089 20.5701C71.3725 20.5083 71.4588 20.4736 71.5488 20.4736V20.4739ZM86.4675 23.6986C86.4675 23.786 86.4318 23.8698 86.3681 23.9316C86.3045 23.9933 86.2182 24.028 86.1283 24.028H86.0333C84.482 24.028 83.3442 24.3895 82.6205 25.1123C81.8963 25.8352 81.5349 27.0302 81.5349 28.6968V34.0603C81.5349 34.1477 81.4991 34.2315 81.4355 34.2932C81.3719 34.355 81.2856 34.3897 81.1956 34.3897H78.089C77.999 34.3897 77.9128 34.355 77.8491 34.2932C77.7855 34.2315 77.7498 34.1477 77.7498 34.0603V20.803C77.7498 20.7157 77.7855 20.6319 77.8491 20.5701C77.9128 20.5083 77.999 20.4736 78.089 20.4736H81.1644C81.2544 20.4736 81.3407 20.5083 81.4043 20.5701C81.4679 20.6319 81.5037 20.7157 81.5037 20.803V23.4253H81.5658C81.9381 22.341 82.5275 21.5081 83.3344 20.9253C84.1407 20.3432 85.1336 20.0518 86.3124 20.0518H86.4675V23.6984V23.6986ZM95.0459 23.5761C94.9559 23.5761 94.8697 23.6108 94.806 23.6726C94.7424 23.7344 94.7067 23.8181 94.7067 23.9055V29.4197C94.7067 29.982 94.8198 30.3836 95.0477 30.6245C95.275 30.8654 95.6681 30.986 96.2265 30.986H96.5388C96.6288 30.986 96.7151 31.0207 96.7787 31.0824C96.8423 31.1442 96.8781 31.228 96.8781 31.3153V34.0902C96.8781 34.1776 96.8423 34.2613 96.7787 34.3231C96.7151 34.3849 96.6288 34.4196 96.5388 34.4196H95.2027C93.8169 34.4196 92.7519 34.0733 92.0074 33.3805C91.2626 32.6877 90.8904 31.659 90.8904 30.2932V23.9055C90.8904 23.8181 90.8546 23.7344 90.791 23.6726C90.7274 23.6108 90.6411 23.5761 90.5511 23.5761H88.5928C88.5028 23.5761 88.4165 23.5414 88.3529 23.4797C88.2893 23.4179 88.2535 23.3341 88.2535 23.2467V20.803C88.2535 20.7157 88.2893 20.6319 88.3529 20.5701C88.4165 20.5083 88.5028 20.4736 88.5928 20.4736H90.5514C90.6413 20.4736 90.7276 20.4389 90.7912 20.3772C90.8549 20.3154 90.8906 20.2316 90.8906 20.1443V15.2307C90.8906 15.1433 90.9263 15.0595 90.99 14.9977C91.0536 14.936 91.1399 14.9013 91.2299 14.9013H94.3672C94.4572 14.9013 94.5435 14.936 94.6071 14.9977C94.6707 15.0595 94.7065 15.1433 94.7065 15.2307V20.1443C94.7065 20.2316 94.7422 20.3154 94.8058 20.3772C94.8694 20.4389 94.9557 20.4736 95.0457 20.4736H97.3144C97.4043 20.4736 97.4906 20.5083 97.5542 20.5701C97.6179 20.6319 97.6536 20.7157 97.6536 20.803V23.247C97.6536 23.3343 97.6179 23.4181 97.5542 23.4799C97.4906 23.5416 97.4043 23.5763 97.3144 23.5763H95.0459V23.5761ZM109.412 30.2631C110.126 29.5402 110.482 28.5964 110.482 27.4316C110.482 26.2673 110.126 25.3231 109.412 24.6003C108.699 23.8774 107.762 23.516 106.604 23.516C105.446 23.516 104.51 23.8774 103.797 24.6003C103.083 25.3231 102.726 26.2673 102.726 27.4316C102.726 28.5964 103.083 29.5402 103.797 30.2631C104.51 30.986 105.446 31.3474 106.604 31.3474C107.762 31.3474 108.699 30.986 109.412 30.2631ZM102.168 33.9679C101.113 33.3858 100.28 32.5371 99.6708 31.4227C99.0603 30.3083 98.7555 28.9781 98.7555 27.4316C98.7555 25.8857 99.0603 24.555 99.6708 23.4406C100.28 22.3263 101.113 21.4782 102.168 20.8955C103.223 20.3131 104.381 20.022 105.643 20.022C106.759 20.022 107.716 20.2328 108.513 20.6544C109.308 21.0759 109.944 21.6686 110.42 22.4317H110.482V20.803C110.482 20.7157 110.518 20.6319 110.582 20.5701C110.645 20.5083 110.732 20.4736 110.822 20.4736H113.928C114.018 20.4736 114.104 20.5083 114.168 20.5701C114.231 20.6319 114.267 20.7157 114.267 20.803V34.0601C114.267 34.1475 114.231 34.2312 114.168 34.293C114.104 34.3548 114.018 34.3895 113.928 34.3895H110.822C110.732 34.3895 110.645 34.3548 110.582 34.293C110.518 34.2312 110.482 34.1475 110.482 34.0601V32.4317H110.42C109.944 33.1952 109.308 33.7872 108.512 34.2088C107.716 34.6304 106.76 34.8412 105.643 34.8412C104.381 34.8412 103.223 34.55 102.168 33.9679ZM127.186 30.2631C127.9 29.5402 128.257 28.5964 128.257 27.4316C128.257 26.2673 127.9 25.3231 127.186 24.6003C126.473 23.8774 125.537 23.516 124.379 23.516C123.22 23.516 122.285 23.8774 121.571 24.6003C120.858 25.3231 120.501 26.2673 120.501 27.4316C120.501 28.5964 120.858 29.5402 121.571 30.2631C122.285 30.986 123.22 31.3474 124.379 31.3474C125.537 31.3474 126.473 30.986 127.186 30.2631ZM122.471 34.2088C121.675 33.7872 121.038 33.1952 120.563 32.4317H120.501V34.0601C120.501 34.1475 120.465 34.2312 120.401 34.293C120.338 34.3548 120.251 34.3895 120.161 34.3895H117.024C116.934 34.3895 116.848 34.3548 116.784 34.293C116.721 34.2312 116.685 34.1475 116.685 34.0601V13.6341C116.685 13.5467 116.721 13.4629 116.784 13.4012C116.848 13.3394 116.934 13.3047 117.024 13.3047H120.161C120.251 13.3047 120.338 13.3394 120.401 13.4012C120.465 13.4629 120.501 13.5467 120.501 13.6341V22.4314H120.563C121.038 21.6684 121.675 21.0759 122.471 20.6544C123.267 20.2325 124.224 20.0217 125.341 20.0217C126.602 20.0217 127.76 20.3129 128.815 20.8952C129.87 21.478 130.702 22.326 131.313 23.4402C131.922 24.5552 132.228 25.8859 132.228 27.4318C132.228 28.9783 131.922 30.3083 131.313 31.4229C130.703 32.5373 129.87 33.386 128.815 33.9679C127.761 34.5502 126.602 34.8416 125.341 34.8416C124.224 34.8416 123.267 34.6308 122.471 34.209L122.471 34.2088ZM137.514 34.3897H134.377C134.287 34.3897 134.2 34.355 134.137 34.2932C134.073 34.2315 134.037 34.1477 134.037 34.0603V13.6347C134.037 13.5474 134.073 13.4636 134.137 13.4018C134.2 13.34 134.287 13.3053 134.377 13.3053H137.514C137.604 13.3053 137.69 13.34 137.754 13.4018C137.817 13.4636 137.853 13.5474 137.853 13.6347V34.0603C137.853 34.1477 137.817 34.2315 137.754 34.2932C137.69 34.355 137.604 34.3897 137.514 34.3897ZM144.915 23.6969C144.394 24.0908 144.043 24.6595 143.861 25.4035C143.811 25.6086 143.976 25.8053 144.193 25.8053H150.164C150.371 25.8053 150.534 25.6253 150.501 25.4268C150.381 24.723 150.07 24.162 149.568 23.7421C148.979 23.2503 148.208 23.0043 147.257 23.0043C146.305 23.0043 145.524 23.2351 144.915 23.6969ZM152.562 21.9648C153.782 23.2604 154.392 25.0928 154.392 27.4619V27.8554C154.392 27.9427 154.356 28.0265 154.293 28.0883C154.229 28.15 154.143 28.1847 154.053 28.1847H144.078C144.028 28.1848 143.979 28.1955 143.934 28.2159C143.889 28.2363 143.849 28.266 143.817 28.3029C143.785 28.3398 143.762 28.3831 143.749 28.4296C143.736 28.4762 143.734 28.525 143.742 28.5725C143.902 29.4526 144.303 30.1518 144.945 30.6698C145.679 31.2626 146.605 31.5584 147.722 31.5584C149.164 31.5584 150.499 31.0121 151.726 29.9192C151.876 29.7857 152.113 29.814 152.23 29.9763L153.755 32.1019C153.803 32.168 153.824 32.2488 153.814 32.3291C153.805 32.4093 153.765 32.4834 153.703 32.5371C152.954 33.1733 152.122 33.7102 151.228 34.1337C150.235 34.6053 149.066 34.8416 147.722 34.8416C146.171 34.8416 144.816 34.5351 143.658 33.9229C142.499 33.3107 141.6 32.4473 140.959 31.3325C140.318 30.2181 139.997 28.928 139.997 27.4619C139.997 25.9964 140.308 24.7013 140.928 23.5763C141.548 22.4521 142.417 21.5786 143.534 20.9558C144.651 20.3338 145.954 20.0222 147.443 20.0222C149.635 20.0222 151.341 20.6699 152.562 21.9648ZM75.4352 15.5728C75.4352 16.8152 74.3978 17.8224 73.1179 17.8224C71.8378 17.8224 70.8004 16.8152 70.8004 15.5725C70.8004 14.3299 71.8381 13.3227 73.1179 13.3227C74.3978 13.3227 75.4352 14.3299 75.4352 15.5725" fill="white"/>
<path d="M18.4667 7.36428L3.5489 13.3574C2.71933 13.6907 2.72792 14.8349 3.5627 15.1562L18.5427 20.9238C19.8589 21.4306 21.3246 21.4306 22.6408 20.9238L37.621 15.156C38.4556 14.8349 38.4646 13.6909 37.6346 13.3576L22.7173 7.36406C21.3563 6.81729 19.8275 6.81729 18.4665 7.36406" fill="white"/>
<path d="M21.9209 24.0731V38.4814C21.9209 39.1665 22.6326 39.636 23.2887 39.3835L39.9811 33.0929C40.1672 33.0212 40.3269 32.8969 40.4395 32.7361C40.552 32.5752 40.6121 32.3853 40.6121 32.1908V17.7827C40.6121 17.0974 39.9003 16.6281 39.2442 16.8807L22.5519 23.1713C22.3658 23.243 22.2061 23.3673 22.0936 23.5281C21.9811 23.689 21.9209 23.8789 21.9209 24.0733" fill="white"/>
<path d="M18.0229 24.8166L13.069 27.1389L12.566 27.3749L2.10858 32.2398C1.44592 32.5503 0.599609 32.0813 0.599609 31.3663V17.843C0.599609 17.5844 0.736213 17.3611 0.919406 17.1931C0.994561 17.1204 1.07982 17.0583 1.17271 17.0086C1.4224 16.863 1.77883 16.8242 2.08189 16.9406L17.9397 23.041C18.7457 23.3515 18.809 24.4481 18.0229 24.8168" fill="white"/>
<path d="M18.0224 24.8166L13.0685 27.1389L0.918945 17.1929C0.994115 17.1203 1.07938 17.0583 1.17225 17.0086C1.42194 16.863 1.77837 16.8242 2.08143 16.9406L17.9392 23.041C18.7453 23.3515 18.8086 24.4481 18.0224 24.8168" fill="white"/>
</g>
<defs>
<clipPath id="clip0_667_34080">
<rect width="154" height="48" fill="white" transform="translate(0.599609)"/>
</clipPath>
</defs>
</svg>
