<svg width="137" height="48" viewBox="0 0 137 48" fill="none" xmlns="http://www.w3.org/2000/svg">
<g clip-path="url(#clip0_667_34096)">
<path d="M98.6329 14.0516H95.9608V34.0575H106.801V31.5731H98.6329V14.0516ZM117.12 30.5489C116.447 31.2462 115.317 31.9436 113.797 31.9436C111.754 31.9436 110.929 30.9411 110.929 29.6118C110.929 27.6286 112.298 26.6697 115.23 26.6697C115.774 26.6697 116.664 26.7351 117.12 26.8223V30.5489ZM114.361 18.432C112.189 18.432 110.212 19.1947 108.67 20.4805L109.625 22.1368C110.712 21.5048 112.059 20.851 113.992 20.851C116.186 20.851 117.164 21.9842 117.164 23.8802V24.8609C116.729 24.7737 115.86 24.7083 115.296 24.7083C110.603 24.7083 108.235 26.3646 108.235 29.8079C108.235 32.9025 110.125 34.4498 112.993 34.4498C114.926 34.4498 116.773 33.5563 117.403 32.1179L117.881 34.0793H119.771V23.8366C119.749 20.5895 118.337 18.432 114.361 18.432ZM128.395 32.0526C127.396 32.0526 126.505 31.9218 125.832 31.6167V22.3765C126.744 21.6137 127.874 21.0689 129.308 21.0689C131.893 21.0689 132.892 22.8995 132.892 25.8634C132.914 30.0694 131.285 32.0526 128.395 32.0526ZM129.525 18.432C127.135 18.432 125.832 20.0664 125.832 20.0664V17.4731V14.0516H123.203V33.5781C124.507 34.1229 126.31 34.428 128.265 34.428C133.262 34.428 135.673 31.2244 135.673 25.689C135.673 21.3304 133.457 18.432 129.525 18.432ZM69.4787 16.2309C71.8466 16.2309 73.3891 17.0154 74.3884 17.8218L75.5398 15.8168C73.9756 14.4438 71.8467 13.7029 69.609 13.7029C63.9172 13.7029 59.9199 17.1898 59.9199 24.2071C59.9199 31.5731 64.2214 34.4498 69.1528 34.4498C71.6294 34.4498 73.715 33.8614 75.0836 33.2948L75.0184 25.4275V22.9213H67.6973V25.4057H72.368L72.4332 31.377C71.8249 31.6821 70.7604 31.9218 69.3266 31.9218C65.3728 31.9218 62.7224 29.4156 62.7224 24.1635C62.7224 18.8242 65.4597 16.2309 69.4787 16.2309ZM88.3355 14.0516H85.7069V17.4077V29.0233C85.7069 32.2705 87.1189 34.428 91.0945 34.428C91.6376 34.428 92.1807 34.3844 92.7021 34.2755V31.9218C92.3328 31.9872 91.9201 32.009 91.4856 32.009C89.2914 32.009 88.3138 30.8757 88.3138 28.9798V20.9817H92.7021V18.8024H88.3138L88.3355 14.0516ZM79.0592 34.0575H81.6878V18.8024H79.0592V34.0575ZM79.0592 16.6885H81.6878V14.0516H79.0592V16.6885Z" fill="white"/>
<path d="M24.0091 46L32.7858 18.9331H15.2324L24.0091 46Z" fill="white"/>
<path d="M24.009 46L15.2323 18.9331H2.95801L24.009 46Z" fill="white"/>
<path d="M2.95891 18.9331L0.286807 27.1491C0.0478383 27.89 0.308532 28.7181 0.938541 29.1758L23.9882 45.9782L2.95891 18.9331Z" fill="white"/>
<path d="M2.95801 18.9331H15.254L9.95328 2.63195C9.69259 1.78203 8.49774 1.78203 8.23705 2.63195L2.95801 18.9331Z" fill="white"/>
<path d="M24.0088 46L32.7855 18.9331H45.0815L24.0088 46Z" fill="white"/>
<path d="M45.0605 18.9331L47.7326 27.1491C47.9716 27.89 47.7109 28.7181 47.0809 29.1758L24.0312 45.9782L45.0605 18.9331Z" fill="white"/>
<path d="M45.0607 18.9331H32.7646L38.0437 2.63196C38.3261 1.80383 39.4992 1.80383 39.7599 2.63196L45.0607 18.9331Z" fill="white"/>
</g>
<defs>
<clipPath id="clip0_667_34096">
<rect width="136" height="48" fill="white" transform="translate(0.199219)"/>
</clipPath>
</defs>
</svg>
