<svg width="145" height="48" viewBox="0 0 145 48" fill="none" xmlns="http://www.w3.org/2000/svg">
<g clip-path="url(#clip0_667_34115)">
<path d="M144.333 23.6241V19.03C143.434 19.0659 140.738 19.4326 139.544 20.8633V19.3463H134.512V34.6528H139.544V27.4201C140.263 24.0123 143.52 23.6528 144.347 23.6241H144.333ZM99.2542 23.8038C98.7142 23.3208 98.0969 22.932 97.4281 22.6535C96.8773 22.385 96.2721 22.2473 95.6594 22.2509C95.2056 22.2464 94.7564 22.3421 94.3438 22.5313C94.1558 22.6075 93.9965 22.7408 93.8881 22.9123C93.7798 23.0838 93.728 23.285 93.7398 23.4875C93.7349 23.6928 93.7967 23.8942 93.9159 24.0615C94.0352 24.2287 94.2055 24.3527 94.4013 24.4149C95.1037 24.6749 95.8247 24.8816 96.5581 25.0332C97.1555 25.1627 97.742 25.3381 98.3124 25.5581C98.886 25.7768 99.424 26.0797 99.9085 26.4567C100.381 26.8287 100.773 27.2936 101.059 27.8228C101.36 28.4142 101.508 29.0717 101.49 29.7352C101.522 30.5454 101.339 31.3497 100.96 32.0667C100.581 32.7837 100.02 33.3881 99.3333 33.8188C98.6744 34.2459 97.9437 34.5504 97.1764 34.7175C96.404 34.9029 95.6126 34.997 94.8183 34.9979C93.5595 34.998 92.3091 34.794 91.1157 34.394C89.9825 34.0415 88.9465 33.4312 88.0889 32.611L90.5764 29.4979C91.1828 30.0517 91.8716 30.5077 92.6183 30.8495C93.2717 31.1782 93.9934 31.3482 94.7248 31.3456C95.1516 31.3412 95.5719 31.2405 95.9542 31.0509C96.1485 30.9605 96.3105 30.8129 96.4185 30.6279C96.5264 30.4428 96.5752 30.2291 96.5581 30.0156C96.5608 29.7879 96.4931 29.565 96.3645 29.3771C96.2358 29.1893 96.0524 29.0457 95.8392 28.9659C95.0894 28.6539 94.3119 28.4132 93.517 28.2469C92.9673 28.1179 92.4268 27.9522 91.8993 27.7509C91.3797 27.5491 90.8946 27.2677 90.4614 26.9169C90.0476 26.5638 89.7059 26.1341 89.4549 25.6515C89.1742 25.0743 89.0362 24.4382 89.0523 23.7966C89.0287 22.9668 89.2326 22.1464 89.6418 21.4241C90.0269 20.774 90.5557 20.2207 91.1876 19.8064C91.8152 19.3859 92.5109 19.077 93.2438 18.8934C93.9809 18.7004 94.7394 18.6014 95.5013 18.5986C96.6538 18.5974 97.7993 18.7794 98.8947 19.1378C99.9405 19.4646 100.901 20.0195 101.706 20.7626L99.2542 23.8038ZM128.71 25.0117C128.704 24.3071 128.449 23.6272 127.991 23.092C127.695 22.7895 127.336 22.556 126.94 22.4081C126.543 22.2602 126.119 22.2016 125.697 22.2365C125.239 22.2326 124.784 22.3105 124.353 22.4666C123.961 22.6096 123.599 22.8215 123.282 23.092C122.986 23.3564 122.742 23.6733 122.563 24.0267C122.403 24.3334 122.303 24.6676 122.268 25.0117H128.71ZM133.347 27.0894V27.7005C133.358 27.8945 133.358 28.0889 133.347 28.2829H122.246C122.279 28.6937 122.409 29.0907 122.627 29.4404C122.844 29.7914 123.124 30.0986 123.454 30.3463C123.799 30.604 124.182 30.8054 124.59 30.943C125.009 31.0867 125.449 31.1596 125.891 31.1587C126.594 31.1791 127.29 31.026 127.919 30.7129C128.448 30.436 128.908 30.0427 129.263 29.5626L132.765 31.7698C132.035 32.8103 131.043 33.6389 129.889 34.1711C128.615 34.7444 127.23 35.0268 125.834 34.9979C124.726 35.0043 123.624 34.822 122.577 34.4587C121.588 34.122 120.677 33.5917 119.895 32.8986C119.119 32.1974 118.503 31.3365 118.091 30.375C117.631 29.2937 117.406 28.1275 117.429 26.9528C117.414 25.7927 117.632 24.6413 118.069 23.5666C118.472 22.6017 119.066 21.7286 119.816 20.9999C120.57 20.2876 121.457 19.7307 122.426 19.3607C123.47 18.9631 124.58 18.7656 125.697 18.7783C126.757 18.7684 127.809 18.9612 128.796 19.3463C129.714 19.7084 130.541 20.2681 131.219 20.9855C131.915 21.7354 132.453 22.6182 132.801 23.5809C133.194 24.7032 133.386 25.886 133.369 27.075L133.347 27.0894ZM72.7177 23.4947V18.8718H68.4039V15.4424C68.2961 13.4653 67.3615 11.9914 63.5438 11.9914V29.7999C63.5403 30.5135 63.6322 31.2243 63.817 31.9136C63.98 32.5192 64.2746 33.0813 64.6798 33.56C65.1136 34.0368 65.6598 34.3977 66.2686 34.6097C67.1191 34.8802 68.0077 35.0114 68.9 34.9979C70.1999 35.0138 71.4924 34.7996 72.7177 34.3652V30.2672C71.8998 30.4768 71.0599 30.5879 70.2157 30.5979C69.9528 30.6304 69.686 30.6012 69.4364 30.5126C69.1868 30.424 68.9613 30.2784 68.7778 30.0875C68.4903 29.6207 68.3616 29.0733 68.4111 28.5273V23.4947H72.7177Z" fill="white"/>
<path d="M113.087 26.4856L118.767 19.2961H112.756L107.724 25.6516V15.5863C107.63 13.5157 106.731 11.9915 102.856 11.9915V34.6529H107.724V27.334L113.475 34.6529H119.55L113.087 26.4856ZM87.2334 34.6386V24.5013C87.2334 20.1373 83.7681 18.57 80.6982 18.57C78.2809 18.4493 75.903 19.2164 74.0119 20.7268L76.5498 23.8758C77.5717 22.9783 78.8487 22.4227 80.2021 22.2869C82.0498 22.2869 82.4308 23.3438 82.4308 24.6954V24.9543H80.7701C76.4995 24.9543 73.9328 26.802 73.9328 30.0948C73.9328 33.6895 77.0962 34.6242 80.9498 34.6242L87.2334 34.6386ZM82.4308 31.4536H80.8348C79.591 31.4536 78.8289 30.936 78.8289 29.8647C78.8289 28.7935 79.591 28.1752 81.1152 28.1752H82.4308V31.4536ZM45.8146 14.7739C45.8146 15.5175 46.11 16.2307 46.6358 16.7566C47.1616 17.2824 47.8748 17.5778 48.6185 17.5778C49.3621 17.5778 50.0753 17.2824 50.6011 16.7566C51.127 16.2307 51.4224 15.5175 51.4224 14.7739C51.4224 14.0302 51.127 13.3171 50.6011 12.7912C50.0753 12.2654 49.3621 11.97 48.6185 11.97C47.8748 11.97 47.1616 12.2654 46.6358 12.7912C46.11 13.3171 45.8146 14.0302 45.8146 14.7739ZM46.2891 18.9079H46.0806V34.6529H51.1492V22.2222C51.0054 20.3098 50.0276 18.9079 46.2891 18.9079ZM62.4296 23.6242V19.0301C61.5381 19.066 58.8348 19.4327 57.6413 20.8634V19.3464H52.6087V34.6529H57.6413V27.5425C57.6379 27.5018 57.6379 27.4609 57.6413 27.4203C58.3603 24.0124 61.61 23.653 62.4439 23.6242H62.4296ZM142.873 32.3451H142.593V32.8771H142.873C142.909 32.8791 142.945 32.8736 142.979 32.8612C143.013 32.8487 143.044 32.8294 143.071 32.8045C143.097 32.7796 143.118 32.7496 143.132 32.7163C143.146 32.6831 143.154 32.6473 143.154 32.6111C143.154 32.5749 143.146 32.5391 143.132 32.5059C143.118 32.4726 143.097 32.4426 143.071 32.4177C143.044 32.3928 143.013 32.3736 142.979 32.3611C142.945 32.3486 142.909 32.3431 142.873 32.3451ZM143.154 33.819L142.809 33.1H142.593V33.819H142.276V32.0719H142.952C143.024 32.07 143.095 32.0825 143.162 32.1088C143.229 32.1352 143.289 32.1747 143.34 32.225C143.391 32.2754 143.432 32.3356 143.459 32.4019C143.486 32.4683 143.5 32.5394 143.499 32.6111C143.5 32.7157 143.467 32.818 143.407 32.9032C143.346 32.9884 143.26 33.0523 143.161 33.0856L143.542 33.8046L143.154 33.819ZM142.823 31.6621C142.56 31.6492 142.3 31.7152 142.075 31.8517C141.85 31.9882 141.672 32.1889 141.562 32.4278C141.453 32.6668 141.417 32.9332 141.46 33.1925C141.504 33.4518 141.624 33.6922 141.805 33.8828C141.986 34.0733 142.22 34.2052 142.477 34.2614C142.734 34.3177 143.001 34.2957 143.246 34.1983C143.49 34.1009 143.699 33.9326 143.847 33.715C143.994 33.4975 144.074 33.2407 144.074 32.9778C144.079 32.8091 144.05 32.6412 143.99 32.4836C143.929 32.326 143.838 32.182 143.722 32.0597C143.606 31.9374 143.467 31.8393 143.312 31.7711C143.158 31.7029 142.992 31.6658 142.823 31.6621ZM142.823 34.5954C142.502 34.6054 142.186 34.5197 141.914 34.3494C141.642 34.1791 141.427 33.9317 141.296 33.6389C141.165 33.346 141.124 33.0208 141.179 32.7046C141.233 32.3884 141.38 32.0956 141.601 31.8632C141.822 31.6308 142.108 31.4695 142.421 31.3997C142.734 31.3299 143.061 31.3547 143.36 31.4711C143.659 31.5875 143.916 31.7902 144.1 32.0533C144.283 32.3165 144.384 32.6283 144.39 32.949C144.396 33.3711 144.234 33.7783 143.941 34.0815C143.647 34.3846 143.245 34.5591 142.823 34.5667V34.5954ZM31.9316 25.7739L34.1819 19.3033L36.4322 25.7739H31.9316ZM36.5473 11.9915H32.025L25.044 30.4399H22.2976C20.4252 30.5192 18.57 30.0547 16.9558 29.1026C16.3124 28.6898 15.7904 28.1134 15.443 27.4325C15.0956 26.7516 14.9353 25.9906 14.9787 25.2275V23.0706H12.7499C10.6768 23.0138 8.69154 22.2212 7.14927 20.8347C5.94435 19.5709 5.18675 17.9471 4.99241 16.2118H20.6153C23.4551 16.2118 24.5048 17.5994 25.159 18.8432C25.4805 19.467 25.722 20.1289 25.878 20.8131L27.8551 15.5863C27.8551 15.5863 26.2015 11.9915 20.6153 11.9915H0.599609V14.1484C0.599609 18.2177 1.80745 21.4817 4.19437 23.8255C6.06805 25.5986 8.43841 26.7575 10.9885 27.1471C11.8872 31.7627 16.129 34.6386 22.2976 34.6386H28.7107L30.1486 30.483H38.1793L39.6172 34.6314H45.1028L36.5473 11.9915Z" fill="white"/>
</g>
<defs>
<clipPath id="clip0_667_34115">
<rect width="144" height="48" fill="white" transform="translate(0.599609)"/>
</clipPath>
</defs>
</svg>
