<svg width="124" height="48" viewBox="0 0 124 48" fill="none" xmlns="http://www.w3.org/2000/svg">
<g clip-path="url(#clip0_667_34154)">
<path d="M39.4679 21.2385H27.8052C27.1369 21.2385 26.6356 21.9235 26.8696 22.5585L29.6766 29.8267C29.8103 30.1442 29.5429 30.4951 29.2088 30.4784L25.5997 30.2445C25.4493 30.2278 25.2822 30.3113 25.182 30.445L22.3916 34.4049C22.2413 34.6221 21.9405 34.7057 21.7066 34.5553L17.5962 31.7482C17.4459 31.6313 17.2119 31.6313 17.0616 31.7482L11.3472 35.6246C10.9796 35.8753 10.4951 35.5244 10.612 35.1067L12.1993 29.409C12.2662 29.1751 12.1492 28.9245 11.9153 28.8409L8.89103 27.6045C8.59028 27.4708 8.49003 27.1199 8.70724 26.8526L11.3973 23.5443C11.531 23.3772 11.5477 23.1433 11.414 22.9762L9.12495 19.718C8.92445 19.4172 9.10824 18.9995 9.49254 18.9661L12.9847 18.6988C13.2353 18.6821 13.4525 18.4649 13.4358 18.1975L13.1685 13.3019C13.1517 12.951 13.5026 12.7004 13.8368 12.834L18.1643 14.6219C18.3481 14.7054 18.5821 14.6553 18.699 14.4882L21.6899 11.1632C21.9238 10.8958 22.3582 10.9794 22.4919 11.2968L24.2797 15.9084C24.5136 16.4765 25.2321 16.6937 25.7334 16.3094L32.751 11.0796C33.553 10.4948 33.035 9.22496 32.0492 9.35863L27.4376 9.97685C27.2204 10.0103 27.0032 9.8766 26.9364 9.6761L24.5136 3.44377C24.2463 2.79213 23.3942 2.64175 22.9263 3.15972L17.6464 8.89079C17.496 9.04117 17.2955 9.07459 17.1117 9.00775L10.1442 6.06703C9.52596 5.8164 8.84091 6.23411 8.80749 6.91917L8.55686 14.0872C8.54015 14.3378 8.35636 14.5383 8.10573 14.555L1.75643 14.9727C1.00454 15.0229 0.620246 15.8583 1.02125 16.4598L5.24855 22.6754C5.38221 22.8425 5.36551 23.0932 5.21513 23.2602L0.93771 28.1893C0.503285 28.6738 0.68708 29.4424 1.28859 29.6931L6.21765 31.8151C6.43486 31.9153 6.55182 32.1492 6.48499 32.3665L3.34376 44.6473C3.12654 45.5162 4.11236 46.1845 4.83083 45.6666L16.6439 37.1953C16.7942 37.0783 17.0282 37.0616 17.1952 37.1953L22.5754 40.9714C23.0266 41.2889 23.6281 41.1552 23.9288 40.7208L27.2873 35.5578C27.3875 35.4074 27.5713 35.3239 27.7551 35.3573L35.8087 36.3264C36.4603 36.4267 37.112 35.8753 36.878 35.2738L33.5363 26.602C33.4361 26.368 33.5363 26.1174 33.8204 25.967L39.9357 23.0764C40.8213 22.6253 40.5038 21.2385 39.4679 21.2385Z" fill="white"/>
<path d="M123.162 21.2552H114.106C113.938 21.2552 113.771 21.4056 113.771 21.5894V25.5995C113.771 25.7666 113.922 25.9337 114.106 25.9337H117.982C118.166 25.9337 118.316 26.084 118.316 26.2678C118.283 28.323 117.848 32.049 114.106 32.049C111.048 32.049 109.811 28.3564 109.811 24.0122C109.811 18.8659 111.081 15.6912 113.922 15.6912C115.994 15.6912 116.662 17.4457 116.862 18.0806C116.913 18.231 117.03 18.3145 117.18 18.3145H121.892C122.076 18.3145 122.243 18.1474 122.226 17.9636C122.042 15.3905 119.837 10.8792 114.022 10.8792C109.962 10.8792 106.152 13.352 104.932 19.4674V11.5976C104.932 11.4974 104.849 11.4305 104.765 11.4305H99.7862C99.686 11.4305 99.6191 11.5141 99.6191 11.5976V25.6663C99.6191 25.8334 99.3852 25.8835 99.3017 25.7332L92.7686 11.5308C92.7352 11.464 92.685 11.4305 92.6182 11.4305H88.2071C88.1069 11.4305 88.04 11.5141 88.04 11.5976V19.4841C86.4026 14.4882 81.9581 10.8959 76.1769 10.8959C69.7273 10.8959 64.9487 15.3571 63.8626 21.2719H54.8399C54.7397 21.2719 54.6895 21.3555 54.6895 21.439V25.7833C54.6895 25.8835 54.7731 25.9504 54.8399 25.9504H59.0505C59.1508 25.9504 59.2009 26.0339 59.2009 26.1007C59.1842 28.1225 58.8333 32.0323 54.9736 32.0323C51.9159 32.0323 50.6962 28.3397 50.6962 23.9955C50.6962 18.8492 51.966 15.6745 54.8065 15.6745C56.9953 15.6745 57.6303 17.6629 57.7806 18.1808C57.7973 18.2644 57.8642 18.3145 57.931 18.3145H62.9436C63.0439 18.3145 63.1107 18.231 63.094 18.1474C62.9937 15.6077 60.8216 10.8959 54.8733 10.8959C49.9443 10.8959 45.3828 14.5551 45.3828 23.962C45.3828 30.445 47.9225 36.8277 54.9569 36.8277C60.17 36.8277 63.495 32.8009 64.2302 27.9554C65.8008 33.1184 70.2954 36.8277 76.1769 36.8277C81.8578 36.8277 86.3859 33.2186 88.04 28.1893V36.1594C88.04 36.2596 88.1236 36.3264 88.2071 36.3264H93.1863C93.2865 36.3264 93.3534 36.2429 93.3534 36.1594V22.3246C93.3534 22.1575 93.5873 22.1074 93.6708 22.2577L100.204 36.2429C100.237 36.3097 100.287 36.3431 100.354 36.3431H104.765C104.866 36.3431 104.932 36.2596 104.932 36.1928V28.2896C105.902 33.0348 108.642 36.8778 114.089 36.8778C120.02 36.8778 123.513 31.648 123.513 25.9337V21.6562C123.496 21.3889 123.345 21.2552 123.162 21.2552ZM76.1602 31.6313C71.9663 31.6313 69.059 28.4065 69.059 23.8618C69.059 19.3003 71.9663 16.0923 76.1602 16.0923C80.3373 16.0923 83.2613 19.317 83.2613 23.8618C83.2613 28.4065 80.3373 31.6313 76.1602 31.6313Z" fill="white"/>
</g>
<defs>
<clipPath id="clip0_667_34154">
<rect width="123" height="48" fill="white" transform="translate(0.699219)"/>
</clipPath>
</defs>
</svg>
