<svg width="156" height="29" viewBox="0 0 156 29" fill="none" xmlns="http://www.w3.org/2000/svg">
<path d="M13.3804 14.1911C13.3804 11.5847 11.42 9.75281 9.0119 9.75281C6.60382 9.75281 4.64341 11.6155 4.64341 14.1911C4.64341 16.7358 6.60382 18.6295 9.0119 18.6295C11.4224 18.6271 13.3804 16.7976 13.3804 14.1911ZM13.4148 21.9488V19.9315C12.2267 21.3287 10.4582 22.1959 8.34039 22.1959C3.93992 22.1959 0.599609 18.7815 0.599609 14.1911C0.599609 9.62923 4.06783 6.15552 8.43878 6.15552C10.4952 6.15552 12.2293 7.02513 13.4172 8.38896V6.43351H17.3676V21.9488H13.4148Z" fill="white"/>
<path d="M36.5558 18.5036C35.1734 18.5036 34.7897 18.0069 34.7897 16.7049V9.81688H37.3281V6.4335H34.7897V2.64854H30.741V6.4335H25.5263V5.49023C25.5263 4.18581 26.0405 3.68922 27.4548 3.68922H28.3428V0.678833H26.3947C23.0543 0.678833 21.4801 1.73377 21.4801 4.96038V6.43112H19.2319V9.81454H21.4801V21.9464H25.5289V9.81454H30.7434V17.4177C30.7434 20.5825 31.9955 21.9488 35.2718 21.9488H37.3601V18.5036H36.5558Z" fill="white"/>
<path d="M51.0758 12.794C50.7879 10.7767 49.0834 9.56734 47.0934 9.56734C45.101 9.56734 43.4629 10.7459 43.0472 12.794H51.0758ZM43.0128 15.2151C43.303 17.5103 45.0052 18.8148 47.1574 18.8148C48.8595 18.8148 50.178 18.0378 50.9478 16.7975H55.0925C54.1283 20.0859 51.0758 22.1958 47.0615 22.1958C42.2109 22.1958 38.8066 18.9074 38.8066 14.2219C38.8066 9.53647 42.4053 6.15308 47.1599 6.15308C51.9465 6.15308 55.4148 9.56743 55.4148 14.2219C55.4148 14.5641 55.3828 14.9039 55.3188 15.2151H43.0128Z" fill="white"/>
<path d="M81.1558 14.1911C81.1558 11.6773 79.1954 9.75281 76.7873 9.75281C74.3793 9.75281 72.4188 11.6155 72.4188 14.1911C72.4188 16.7358 74.3793 18.6295 76.7873 18.6295C79.1954 18.6271 81.1558 16.705 81.1558 14.1911ZM68.4341 6.43351H72.3843V8.45073C73.5724 7.02275 75.3385 6.15552 77.4588 6.15552C81.7953 6.15552 85.1996 9.6007 85.1996 14.1602C85.1996 18.7221 81.7313 22.1982 77.3629 22.1982C75.3385 22.1982 73.6684 21.4213 72.5123 20.1193V28.3331H68.4341V6.43351Z" fill="white"/>
<path d="M99.439 14.1911C99.439 11.5847 97.481 9.75281 95.0703 9.75281C92.6623 9.75281 90.7019 11.6155 90.7019 14.1911C90.7019 16.7358 92.6623 18.6295 95.0703 18.6295C97.481 18.6271 99.439 16.7976 99.439 14.1911ZM99.4736 21.9488V19.9315C98.2855 21.3287 96.5165 22.1959 94.3986 22.1959C89.9984 22.1959 86.6582 18.7815 86.6582 14.1911C86.6582 9.62923 90.1264 6.15552 94.4949 6.15552C96.5511 6.15552 98.2855 7.02513 99.4736 8.38896V6.43351H103.424V21.9488H99.4736Z" fill="white"/>
<path d="M61.3131 7.95414C61.3131 7.95414 62.3192 6.15552 64.7813 6.15552C65.8341 6.15552 66.5155 6.50478 66.5155 6.50478V10.4632C66.5155 10.4632 65.0297 9.57694 63.6646 9.75515C62.2994 9.93336 61.4361 11.1451 61.441 12.7655V21.9511H57.3628V6.43588H61.3131V7.95414Z" fill="white"/>
<path d="M121.874 6.43347L111.9 28.2831H107.694L111.61 19.8365L104.988 6.43347H109.756L113.629 15.3886L117.604 6.43347H121.874Z" fill="white"/>
<path d="M153.713 6.08184L143.825 0.569529C140.922 -1.04852 137.295 0.973454 137.295 4.21193V4.77742C137.295 5.28826 137.577 5.76108 138.035 6.01531L139.902 7.056C140.45 7.36251 141.134 6.97997 141.134 6.36934V4.96275C141.134 4.25945 141.921 3.8199 142.551 4.17155L151.115 8.94729C151.746 9.29894 151.746 10.1781 151.115 10.5274L142.551 15.3031C141.921 15.6548 141.134 15.2152 141.134 14.5119V13.7634C141.134 10.5249 137.506 8.50061 134.601 10.121L124.713 15.6333C121.81 17.2514 121.81 21.3001 124.713 22.9181L134.601 28.4305C137.503 30.0485 141.134 28.0265 141.134 24.7881V24.2226C141.134 23.7117 140.851 23.2413 140.394 22.9846L138.527 21.9416C137.978 21.6351 137.295 22.0176 137.295 22.6283V24.0349C137.295 24.7382 136.508 25.1777 135.877 24.8261L127.313 20.0503C126.683 19.6987 126.683 18.8196 127.313 18.4679L135.877 13.6921C136.508 13.3405 137.295 13.78 137.295 14.4833V15.2318C137.295 18.4703 140.922 20.4947 143.825 18.8742L153.713 13.3619C156.616 11.7486 156.616 7.69989 153.713 6.08184Z" fill="white"/>
</svg>
