<svg width="162" height="46" viewBox="0 0 162 46" fill="none" xmlns="http://www.w3.org/2000/svg">
<path d="M64.1352 13.3628V17.1428H53.9897V21.2732H63.33V25.0802H53.9897V33.0242H49.1116V13.3628H64.1352Z" fill="white"/>
<path d="M68.121 13.3359H72.3349V16.6712H68.121V13.3359ZM68.121 18.4568H72.3349V33.0175H68.121V18.4568Z" fill="white"/>
<path d="M75.3541 18.4837H79.8498C81.628 24.9454 81.9299 26.2661 82.3996 29.0421C82.9834 25.8146 83.0706 25.4575 83.9295 22.0279L84.8152 18.4702H89.1968L84.4998 33.004H80.0444L75.3541 18.4837Z" fill="white"/>
<path d="M105.368 29.3116C104.874 30.1052 104.285 30.8359 103.617 31.488C102.12 32.8414 100.169 33.5777 98.1547 33.5498C93.8536 33.5498 90.8341 30.767 90.8341 26.0302C90.8341 22.5197 92.5519 18.0053 98.2621 18.0053C99.2273 17.9757 100.188 18.1459 101.085 18.5052C101.982 18.8646 102.796 19.4054 103.476 20.094C105.368 22.1154 105.489 24.9723 105.529 26.6097H95.1956C95.1956 28.4222 96.1887 30.228 98.5103 30.228C100.832 30.228 101.644 28.6917 102.174 27.6675L105.368 29.3116ZM101.121 23.9212C101.086 23.1637 100.803 22.4389 100.315 21.8594C99.7513 21.332 99.0058 21.0446 98.2353 21.0576C97.8295 21.055 97.4278 21.1376 97.0557 21.3C96.6836 21.4625 96.3494 21.7012 96.0746 22.0009C95.6133 22.5466 95.3156 23.2125 95.2158 23.9212H101.121Z" fill="white"/>
<path d="M109.756 14.2792H114.004V18.8206H116.802V21.4349H113.977V28.0112C113.977 28.9006 113.977 29.6754 115.084 29.6754L116.614 29.6216V32.9569C115.872 33.0913 115.12 33.1656 114.366 33.1792C112.89 33.1792 111.286 33.0984 110.34 31.7575C109.756 30.895 109.729 29.8641 109.729 28.4761V21.408H107.622V18.7869H109.729L109.756 14.2792Z" fill="white"/>
<path d="M124.478 19.9863C125.641 18.9637 127.12 18.3758 128.665 18.322V22.1222L127.256 22.3445C125.203 22.7017 124.572 23.0183 124.572 24.8511V33.0175H120.324V18.4567H124.485L124.478 19.9863Z" fill="white"/>
<path d="M131.752 22.6208C131.743 22.0011 131.877 21.3877 132.142 20.828C132.407 20.2684 132.797 19.7775 133.281 19.3933C134.623 18.3422 136.328 18.1198 138.025 18.1198C139.723 18.1198 144.111 18.5308 144.111 22.2906V30.7064C144.111 32.2696 144.192 32.4919 144.527 32.9906H140.367V31.643C139.26 32.4515 138.066 33.3746 135.939 33.3746C132.624 33.3746 131.201 30.9759 131.201 28.9275C131.201 26.5894 133.06 25.2553 134.248 24.7567C136.112 24.1559 138.022 23.7052 139.958 23.4091V22.6275C139.904 21.9537 139.85 20.842 138.3 20.842C136.415 20.842 136.16 22.0144 136.053 22.5467L131.752 22.6208ZM137.16 27.0005C136.442 27.2767 135.328 27.6743 135.328 28.8063C135.35 29.2174 135.534 29.603 135.838 29.8793C136.142 30.1556 136.542 30.3002 136.952 30.2819C137.476 30.2657 137.985 30.1023 138.421 29.8102C139.83 28.9208 139.891 27.5867 139.924 26.0774L137.16 27.0005Z" fill="white"/>
<path d="M153.264 19.7908C153.657 19.3081 154.152 18.9192 154.713 18.6521C155.547 18.3008 156.44 18.1132 157.344 18.0995C158.239 18.0776 159.126 18.2766 159.927 18.679C161.45 19.4876 161.839 20.7948 161.839 23.052V33.0174H157.598V24.8308C157.672 24.1018 157.606 23.3654 157.404 22.6612C157.236 22.3024 156.963 22.0037 156.621 21.805C156.279 21.6063 155.885 21.5171 155.492 21.5494C153.244 21.5494 153.244 23.3619 153.244 25.1677V33.0174H148.99V18.5106H153.291L153.264 19.7908Z" fill="white"/>
<path d="M23.0702 23.0385H27.5726C27.7505 23.0385 27.9212 22.9675 28.047 22.8412C28.1729 22.7148 28.2436 22.5434 28.2436 22.3647C28.2432 22.2723 28.225 22.1807 28.1899 22.0952L20.4466 0.93122C20.3988 0.806699 20.3152 0.699244 20.2065 0.622471C20.0978 0.545699 19.9688 0.503077 19.836 0.5H15.3202C15.1422 0.5 14.9716 0.570978 14.8457 0.69734C14.7199 0.823702 14.6492 0.995096 14.6492 1.1738C14.6493 1.25193 14.6629 1.32944 14.6894 1.40289L22.4394 22.6208C22.4906 22.746 22.5782 22.8528 22.6907 22.9273C22.8032 23.0018 22.9354 23.0406 23.0702 23.0385Z" fill="white"/>
<path d="M22.2716 45.5299H26.774C26.9519 45.5299 27.1226 45.4589 27.2484 45.3325C27.3743 45.2062 27.445 45.0348 27.445 44.8561C27.4449 44.778 27.4312 44.7004 27.4047 44.627L11.4417 0.944665C11.3934 0.819095 11.3089 0.710924 11.1988 0.634065C11.0888 0.557206 10.9584 0.515192 10.8244 0.513445H6.32867C6.15071 0.513445 5.98005 0.584423 5.85421 0.710785C5.72837 0.837146 5.65767 1.00854 5.65767 1.18724C5.65776 1.26537 5.67138 1.34289 5.69793 1.41633L21.661 45.1054C21.7098 45.2287 21.7938 45.3347 21.9024 45.4102C22.0111 45.4857 22.1395 45.5274 22.2716 45.5299Z" fill="white"/>
<path d="M13.4011 45.5299H17.8968C18.0658 45.5305 18.2289 45.4669 18.3533 45.352C18.4777 45.2371 18.5543 45.0792 18.5678 44.91C18.5676 44.8209 18.554 44.7323 18.5275 44.6472L10.7574 23.463C10.7096 23.3385 10.626 23.231 10.5173 23.1543C10.4086 23.0775 10.2797 23.0349 10.1468 23.0318H5.62428C5.45338 23.0421 5.29288 23.1176 5.17562 23.2429C5.05836 23.3681 4.99323 23.5337 4.99354 23.7056C4.99333 23.7794 5.00698 23.8525 5.03379 23.9212L12.7704 45.1122C12.8216 45.2374 12.9091 45.3442 13.0216 45.4187C13.1341 45.4932 13.2664 45.5319 13.4011 45.5299Z" fill="white"/>
<path d="M23.6137 1.4231L27.2438 11.3347C27.2916 11.4592 27.3751 11.5667 27.4838 11.6434C27.5926 11.7202 27.7215 11.7628 27.8544 11.7659H32.3367C32.5146 11.7659 32.6853 11.6949 32.8111 11.5685C32.9369 11.4422 33.0076 11.2708 33.0076 11.0921C33.0076 11.014 32.9939 10.9364 32.9674 10.863L29.3373 0.944689C29.2895 0.820168 29.2059 0.712713 29.0972 0.63594C28.9885 0.559167 28.8596 0.516545 28.7267 0.513469H24.2243C24.0463 0.513469 23.8757 0.584447 23.7498 0.710809C23.624 0.83717 23.5533 1.00856 23.5533 1.18727C23.559 1.26891 23.5795 1.34883 23.6137 1.4231Z" fill="white"/>
<path d="M5.10088 45.5299H9.59656C9.77452 45.5299 9.94518 45.4589 10.071 45.3326C10.1969 45.2062 10.2676 45.0348 10.2676 44.8561C10.2675 44.778 10.2538 44.7005 10.2273 44.627L6.57708 34.6885C6.52884 34.5629 6.44428 34.4548 6.33426 34.3779C6.22423 34.3011 6.09379 34.259 5.95977 34.2573H1.4708C1.29284 34.2573 1.12218 34.3283 0.996345 34.4546C0.870509 34.581 0.799805 34.7524 0.799805 34.9311C0.80005 35.0114 0.813656 35.0911 0.840063 35.1669L4.47014 45.1054C4.52028 45.2319 4.60741 45.3401 4.72 45.4159C4.83259 45.4917 4.96535 45.5314 5.10088 45.5299Z" fill="white"/>
</svg>
