<svg width="128" height="48" viewBox="0 0 128 48" fill="none" xmlns="http://www.w3.org/2000/svg">
<g clip-path="url(#clip0_667_34069)">
<path fill-rule="evenodd" clip-rule="evenodd" d="M123.656 31.9803C123.733 32.8499 124.428 33.9567 125.634 33.9567H126.338C126.612 33.9567 126.836 33.7327 126.836 33.4592V17.9535H126.833C126.819 17.6922 126.603 17.483 126.338 17.483H124.154C123.889 17.483 123.673 17.6922 123.66 17.9535H123.656V19.2134C122.318 17.5635 120.208 16.8787 118.092 16.8787C113.281 16.8787 109.382 20.7811 109.382 25.5953C109.382 30.4099 113.281 34.3124 118.092 34.3124C120.208 34.3124 122.514 33.4911 123.656 31.9784V31.9803ZM118.1 31.2617C115.04 31.2617 112.56 28.725 112.56 25.5953C112.56 22.4663 115.04 19.9295 118.1 19.9295C121.16 19.9295 123.639 22.4663 123.639 25.5953C123.639 28.725 121.16 31.2617 118.1 31.2617Z" fill="white"/>
<path fill-rule="evenodd" clip-rule="evenodd" d="M106.619 24.49C106.619 19.9672 103.768 16.916 99.2217 16.916C97.0513 16.916 95.2722 18.172 94.6438 19.2509C94.508 18.4073 94.0605 17.5205 92.6727 17.5205H91.9653C91.6917 17.5205 91.4683 17.7447 91.4683 18.0182V32.0191C91.4683 32.0196 91.4683 32.0206 91.4683 32.0213V33.5252H91.471C91.4853 33.786 91.7013 33.9955 91.9655 33.9955H94.1502C94.1836 33.9955 94.2164 33.9915 94.2481 33.9854C94.2626 33.9825 94.276 33.9768 94.2901 33.9729C94.3063 33.9679 94.3233 33.964 94.3387 33.9576C94.3581 33.9496 94.3758 33.9388 94.3938 33.9287C94.4027 33.9232 94.412 33.9194 94.4205 33.9138C94.4424 33.8997 94.4623 33.8827 94.4817 33.8655C94.4848 33.8623 94.4886 33.8601 94.4918 33.8572C94.5135 33.8362 94.5334 33.813 94.5509 33.7889C94.6055 33.7138 94.6389 33.6229 94.6444 33.5252H94.6472V24.3656C94.6472 21.9365 96.6151 19.9672 99.0425 19.9672C101.47 19.9672 103.438 21.9365 103.438 24.3656L103.44 32.0218L103.44 32.0191C103.44 32.0259 103.441 32.0329 103.441 32.0401V33.5252H103.444C103.459 33.786 103.674 33.9955 103.938 33.9955H106.123C106.157 33.9955 106.19 33.9915 106.221 33.9854C106.234 33.983 106.246 33.9777 106.259 33.9742C106.277 33.969 106.295 33.9646 106.312 33.9576C106.33 33.9502 106.346 33.9399 106.363 33.9304C106.373 33.9246 106.384 33.9204 106.394 33.9138C106.414 33.9005 106.433 33.8844 106.451 33.8687C106.456 33.8643 106.461 33.8612 106.465 33.8568C106.486 33.8368 106.504 33.8152 106.521 33.7926C106.522 33.7909 106.524 33.7896 106.525 33.7879C106.579 33.7134 106.612 33.6235 106.617 33.5265C106.617 33.5258 106.618 33.5252 106.618 33.5252H106.621L106.619 24.49Z" fill="white"/>
<path fill-rule="evenodd" clip-rule="evenodd" d="M83.8675 31.9803C83.9439 32.8498 84.6395 33.9566 85.8445 33.9566H86.5495C86.8228 33.9566 87.0465 33.7327 87.0465 33.4591V17.9535H87.0437C87.0295 17.6922 86.8133 17.483 86.5495 17.483H84.3648C84.1006 17.483 83.8848 17.6922 83.87 17.9535H83.8675V19.2134C82.5289 17.5635 80.4186 16.8787 78.3023 16.8787C73.4921 16.8787 69.5928 20.7811 69.5928 25.5954C69.5928 30.4098 73.4921 34.3124 78.3023 34.3124C80.4186 34.3124 82.7249 33.4912 83.8673 31.9783L83.8675 31.9803ZM78.3108 31.2616C75.2517 31.2616 72.7715 28.725 72.7715 25.5954C72.7715 22.4663 75.2517 19.9295 78.3108 19.9295C81.3703 19.9295 83.85 22.4663 83.85 25.5954C83.85 28.725 81.3703 31.2616 78.3108 31.2616Z" fill="white"/>
<path fill-rule="evenodd" clip-rule="evenodd" d="M56.6736 29.7596C58.132 30.7707 59.7239 31.2618 61.2537 31.2618C62.7111 31.2618 64.2178 30.5057 64.2178 29.1896C64.2178 27.4325 60.9347 27.1591 58.872 26.4575C56.8088 25.7559 55.0319 24.3055 55.0319 21.9568C55.0319 18.3628 58.2318 16.8784 61.2184 16.8784C63.1106 16.8784 65.063 17.5029 66.3288 18.3975C66.7647 18.728 66.4993 19.1075 66.4993 19.1075L65.291 20.8346C65.1552 21.0291 64.9177 21.1972 64.5769 20.9866C64.236 20.7762 63.0404 19.9293 61.2184 19.9293C59.3961 19.9293 58.2985 20.7715 58.2985 21.8153C58.2985 23.067 59.7251 23.4607 61.396 23.8874C64.3079 24.6729 67.4844 25.6171 67.4844 29.1896C67.4844 32.3561 64.5247 34.3131 61.2537 34.3131C58.7749 34.3131 56.6645 33.6059 54.8945 32.306C54.5257 31.9367 54.7832 31.5938 54.7832 31.5938L55.9856 29.8755C56.2303 29.5542 56.5387 29.6663 56.6736 29.7596Z" fill="white"/>
<path fill-rule="evenodd" clip-rule="evenodd" d="M48.2749 31.9803C48.3513 32.8498 49.0468 33.9566 50.2517 33.9566H50.9568C51.2301 33.9566 51.4541 33.7327 51.4541 33.4591V17.9535H51.451C51.4367 17.6922 51.2209 17.483 50.9568 17.483H48.7722C48.508 17.483 48.2922 17.6922 48.2775 17.9535H48.2749V19.2134C46.9364 17.5635 44.826 16.8787 42.7098 16.8787C37.8995 16.8787 34 20.7811 34 25.5954C34 30.4098 37.8995 34.3124 42.7098 34.3124C44.826 34.3124 47.1323 33.4912 48.2745 31.9783L48.2749 31.9803ZM42.7183 31.2616C39.659 31.2616 37.1789 28.725 37.1789 25.5954C37.1789 22.4663 39.659 19.9295 42.7183 19.9295C45.7775 19.9295 48.2574 22.4663 48.2574 25.5954C48.2574 28.725 45.7775 31.2616 42.7183 31.2616Z" fill="white"/>
<path fill-rule="evenodd" clip-rule="evenodd" d="M21.7888 26.1881C18.5517 26.1881 15.9274 28.8123 15.9274 32.0497C15.9274 35.2868 18.5517 37.911 21.7888 37.911C25.0259 37.911 27.6501 35.2868 27.6501 32.0497C27.6501 28.8123 25.0259 26.1881 21.7888 26.1881ZM6.56056 26.1886C3.32346 26.1886 0.699219 28.8123 0.699219 32.0497C0.699219 35.2868 3.32346 37.911 6.56056 37.911C9.7978 37.911 12.4222 35.2868 12.4222 32.0497C12.4222 28.8123 9.7978 26.1886 6.56056 26.1886ZM20.0359 18.8612C20.0359 22.0986 17.4118 24.7231 14.1747 24.7231C10.9375 24.7231 8.31336 22.0986 8.31336 18.8612C8.31336 15.6245 10.9375 13 14.1747 13C17.4118 13 20.0359 15.6245 20.0359 18.8612Z" fill="white"/>
</g>
<defs>
<clipPath id="clip0_667_34069">
<rect width="127" height="48" fill="white" transform="translate(0.699219)"/>
</clipPath>
</defs>
</svg>
