<svg width="136" height="48" viewBox="0 0 136 48" fill="none" xmlns="http://www.w3.org/2000/svg">
<g clip-path="url(#clip0_667_34088)">
<path d="M0.299805 2H29.4425V16.5713H14.8711L0.299805 2ZM0.299805 16.5713H14.8711L29.4425 31.1427H0.299805V16.5713ZM0.299805 31.1427H14.8711V45.714L0.299805 31.1427Z" fill="white"/>
<path d="M45.8857 13.4954H57.6657V17.2387H50.3444V22.4407H57.6657V26.1014H50.3444V32.762H45.8857V13.4954ZM60.0877 19.4954H64.2991V22.2754C64.5191 21.32 64.9691 20.5867 65.6477 20.0734C66.3437 19.5407 67.1164 19.2754 67.9597 19.2754C68.4004 19.2754 68.7677 19.3127 69.0604 19.3854V23.294C68.6404 23.2434 68.2177 23.216 67.7944 23.2114C66.6384 23.2114 65.7677 23.5867 65.1797 24.3394C64.5937 25.0734 64.2991 26.174 64.2991 27.6427V32.762H60.0897V19.4954H60.0877ZM75.7084 33.12C74.4244 33.12 73.3044 32.8167 72.3504 32.2114C71.4144 31.606 70.6704 30.7467 70.2037 29.734C69.7084 28.6707 69.4591 27.4674 69.4591 26.1287C69.4591 24.8074 69.7177 23.614 70.2311 22.5507C70.7124 21.5234 71.4764 20.6547 72.4331 20.046C73.4044 19.4407 74.5151 19.1374 75.7637 19.1374C76.6991 19.1374 77.5351 19.34 78.2684 19.7434C79.0017 20.148 79.5524 20.6987 79.9197 21.3947V19.4954H84.1031V32.762H79.9197V30.89C79.5524 31.5507 78.9837 32.0914 78.2131 32.514C77.4424 32.9227 76.5811 33.1307 75.7084 33.12ZM76.9197 29.624C77.9284 29.624 78.7084 29.294 79.2591 28.6334C79.8097 27.9727 80.0851 27.1374 80.0851 26.1287C80.0851 25.138 79.8097 24.312 79.2591 23.6514C78.7084 22.9907 77.9284 22.6607 76.9197 22.6607C75.9644 22.6607 75.1951 22.9814 74.6077 23.624C74.0391 24.2667 73.7544 25.1007 73.7544 26.1287C73.7544 27.1567 74.0391 28 74.6077 28.6607C75.1951 29.3034 75.9657 29.624 76.9197 29.624ZM87.0484 19.4954H91.2597V21.422C91.5544 20.742 92.0304 20.1914 92.6904 19.7707C93.3704 19.35 94.1591 19.1374 95.0577 19.1374C97.1497 19.1374 98.5357 19.9534 99.2137 21.5874C99.5871 20.8467 100.171 20.234 100.893 19.826C101.665 19.3614 102.552 19.1234 103.452 19.1374C106.59 19.1374 108.159 20.9347 108.159 24.532V32.762H103.92V25.3027C103.92 24.4047 103.755 23.744 103.425 23.3214C103.094 22.9 102.599 22.688 101.938 22.688C101.223 22.688 100.672 22.936 100.287 23.4314C99.9017 23.9087 99.7091 24.7427 99.7091 25.936V32.762H95.4704V25.2754C95.4704 24.3767 95.3057 23.7247 94.9751 23.3214C94.6644 22.9 94.1771 22.688 93.5177 22.688C92.7831 22.688 92.2231 22.936 91.8377 23.4314C91.4524 23.9087 91.2597 24.7427 91.2597 25.936V32.762H87.0497V19.4954H87.0484ZM123.979 25.4407C123.979 26.0087 123.942 26.624 123.867 27.2847H114.07C114.108 28.1474 114.4 28.8067 114.951 29.2667C115.502 29.7247 116.246 29.9547 117.18 29.9547C118.484 29.9547 119.31 29.5594 119.658 28.7707H123.786C123.584 30.074 122.868 31.128 121.639 31.936C120.428 32.7247 118.942 33.12 117.18 33.12C114.906 33.12 113.116 32.5047 111.813 31.2754C110.529 30.0454 109.886 28.3307 109.886 26.1287C109.886 24.6974 110.18 23.4587 110.767 22.4127C111.334 21.368 112.209 20.5227 113.272 19.9907C114.355 19.4227 115.612 19.1374 117.044 19.1374C118.401 19.1374 119.602 19.4034 120.648 19.936C121.712 20.4687 122.53 21.2114 123.098 22.1654C123.686 23.1207 123.979 24.212 123.979 25.4407ZM119.821 24.67C119.803 23.7894 119.556 23.1187 119.078 22.6607C118.602 22.2027 117.912 21.9727 117.014 21.9727C116.115 21.9727 115.4 22.22 114.867 22.716C114.354 23.1934 114.088 23.844 114.068 24.67H119.821ZM125.836 19.4954H130.047V22.2754C130.267 21.32 130.717 20.5867 131.396 20.0734C132.054 19.5547 132.869 19.2734 133.708 19.2754C134.148 19.2754 134.516 19.3127 134.808 19.3854V23.294C134.388 23.2434 133.966 23.216 133.542 23.2114C132.386 23.2114 131.516 23.5867 130.928 24.3394C130.34 25.0734 130.047 26.174 130.047 27.6427V32.762H125.836V19.4954Z" fill="white"/>
</g>
<defs>
<clipPath id="clip0_667_34088">
<rect width="135" height="48" fill="white" transform="translate(0.299805)"/>
</clipPath>
</defs>
</svg>
