<svg width="231" height="48" viewBox="0 0 231 48" fill="none" xmlns="http://www.w3.org/2000/svg">
<g clip-path="url(#clip0_667_34107)">
<path d="M12.8434 26.584L25.2874 38.834H0.399414L12.8434 26.584Z" fill="white"/>
<path d="M0.399414 14.334L12.8434 26.584L25.2874 14.334H0.399414Z" fill="white"/>
<path d="M12.8457 26.584L25.2897 38.834L37.7337 26.584L25.2897 14.334L12.8457 26.584Z" fill="white"/>
<path d="M225.603 20.14C225.603 20.318 225.357 20.396 225.241 20.26C224.331 19.202 222.827 18.4 220.769 18.4C216.315 18.4 213.783 21.996 213.783 26.35C213.783 30.676 216.315 34.27 220.769 34.27C222.855 34.27 224.485 33.54 225.497 32.28C225.611 32.14 225.865 32.216 225.865 32.396V33.742C225.865 33.842 225.945 33.922 226.043 33.922H228.887C228.987 33.922 229.067 33.842 229.067 33.742V12.18C229.067 12.1323 229.048 12.0865 229.015 12.0527C228.981 12.019 228.935 12 228.887 12H225.781C225.734 12.0005 225.689 12.0197 225.655 12.0534C225.622 12.0871 225.603 12.1326 225.603 12.18V20.14ZM225.747 26.35C225.747 29.07 224.147 31.202 221.497 31.202C218.877 31.202 217.247 29.068 217.247 26.35C217.247 23.574 218.877 21.47 221.497 21.47C224.147 21.47 225.747 23.574 225.747 26.35ZM212.919 18.8C212.92 18.7551 212.903 18.7118 212.872 18.6788C212.842 18.6458 212.8 18.6255 212.755 18.622C212.645 18.6135 212.534 18.6082 212.423 18.606C210.283 18.606 209.037 19.464 208.351 20.304C208.235 20.444 207.969 20.368 207.969 20.184V18.93C207.969 18.8826 207.951 18.8371 207.917 18.8034C207.884 18.7697 207.839 18.7505 207.791 18.75H204.945C204.898 18.7505 204.853 18.7697 204.819 18.8034C204.786 18.8371 204.767 18.8826 204.767 18.93V33.742C204.767 33.842 204.847 33.922 204.945 33.922H208.053C208.101 33.9215 208.146 33.9023 208.179 33.8686C208.213 33.8349 208.231 33.7894 208.231 33.742V26.03C208.231 23.106 209.687 21.82 212.133 21.82C212.341 21.82 212.561 21.84 212.713 21.854C212.739 21.8568 212.765 21.8542 212.789 21.8465C212.814 21.8388 212.836 21.8261 212.856 21.8091C212.875 21.7922 212.891 21.7715 212.902 21.7482C212.913 21.725 212.919 21.6997 212.919 21.674V18.8ZM198.249 26.82C198.275 26.8163 198.301 26.8181 198.326 26.8253C198.351 26.8325 198.374 26.845 198.393 26.8619C198.413 26.8788 198.428 26.8997 198.439 26.9232C198.45 26.9467 198.455 26.9722 198.455 26.998V27.754C198.455 29.8 197.087 31.554 194.291 31.554C192.631 31.554 191.611 30.998 191.611 29.566C191.611 28.514 192.311 27.726 194.437 27.402L198.249 26.822V26.82ZM193.593 34.272C195.747 34.272 197.367 33.644 198.417 32.412C198.531 32.276 198.781 32.352 198.789 32.532C198.831 33.402 198.955 33.92 198.979 33.92H201.997C202.125 33.92 202.215 33.788 202.175 33.666C201.965 33.002 201.831 31.926 201.831 31.056V24.07C201.831 20.592 199.735 18.4 195.311 18.4C190.853 18.4 189.027 20.736 188.667 23.318C188.665 23.3428 188.667 23.368 188.675 23.3918C188.682 23.4156 188.695 23.4376 188.711 23.4563C188.728 23.4749 188.748 23.4899 188.771 23.5002C188.794 23.5105 188.818 23.5159 188.843 23.516H191.869C191.957 23.516 192.029 23.452 192.049 23.366C192.331 22.052 193.399 21.266 195.223 21.266C197.289 21.266 198.455 22.2 198.455 24.042V24.12C198.455 24.1632 198.44 24.205 198.411 24.2377C198.383 24.2703 198.344 24.2918 198.301 24.298L194.087 24.89C190.099 25.444 188.295 27.11 188.295 29.682C188.295 32.282 189.837 34.272 193.593 34.272ZM179.125 34.272C183.957 34.272 186.985 30.618 186.985 26.352C186.985 22.084 183.957 18.4 179.125 18.4C174.321 18.4 171.295 22.084 171.295 26.35C171.295 30.618 174.321 34.27 179.125 34.27V34.272ZM174.759 26.352C174.759 23.398 176.621 21.47 179.125 21.47C181.659 21.47 183.521 23.398 183.521 26.35C183.521 29.274 181.659 31.202 179.125 31.202C176.621 31.202 174.759 29.274 174.759 26.35V26.352ZM158.537 20.26C158.421 20.396 158.177 20.318 158.177 20.14V12.18C158.177 12.1323 158.158 12.0865 158.125 12.0527C158.091 12.019 158.045 12 157.997 12H154.891C154.844 12 154.798 12.019 154.764 12.0527C154.73 12.0865 154.711 12.1323 154.711 12.18V33.74C154.711 33.84 154.791 33.92 154.891 33.92H157.735C157.835 33.92 157.915 33.84 157.915 33.74V32.38C157.915 32.2 158.163 32.124 158.275 32.264C159.309 33.534 160.941 34.272 163.009 34.272C167.491 34.272 170.025 30.676 170.025 26.352C170.025 21.996 167.491 18.4 163.009 18.4C160.975 18.4 159.453 19.202 158.537 20.26ZM158.059 26.35C158.059 23.574 159.659 21.47 162.309 21.47C164.929 21.47 166.561 23.574 166.561 26.35C166.561 29.07 164.929 31.202 162.309 31.202C159.661 31.202 158.059 29.068 158.059 26.35ZM151.769 31.062C151.769 31.0339 151.762 31.0063 151.749 30.9812C151.736 30.9561 151.718 30.9341 151.696 30.9167C151.674 30.8993 151.648 30.8871 151.621 30.8807C151.593 30.8744 151.565 30.8741 151.537 30.88C151.337 30.92 151.029 30.97 150.693 30.97C149.499 30.97 149.005 30.384 149.005 29.186V21.706C149.006 21.6586 149.025 21.6133 149.059 21.58C149.092 21.5467 149.138 21.528 149.185 21.528H151.649C151.749 21.528 151.829 21.448 151.829 21.348V18.934C151.829 18.8863 151.81 18.8405 151.777 18.8067C151.743 18.773 151.697 18.754 151.649 18.754H149.183C149.16 18.754 149.136 18.7493 149.114 18.7403C149.093 18.7313 149.073 18.718 149.056 18.7013C149.039 18.6846 149.026 18.6647 149.017 18.6429C149.008 18.621 149.003 18.5976 149.003 18.574V14.988C149.003 14.9406 148.985 14.8951 148.951 14.8614C148.918 14.8277 148.873 14.8085 148.825 14.808H145.719C145.672 14.808 145.626 14.827 145.592 14.8607C145.558 14.8945 145.539 14.9403 145.539 14.988V18.576C145.539 18.5996 145.535 18.623 145.526 18.6449C145.517 18.6667 145.503 18.6866 145.487 18.7033C145.47 18.72 145.45 18.7333 145.428 18.7423C145.406 18.7513 145.383 18.756 145.359 18.756H143.419C143.372 18.756 143.326 18.7747 143.293 18.808C143.259 18.8413 143.24 18.8866 143.239 18.934V21.352C143.239 21.452 143.319 21.532 143.419 21.532H145.359C145.459 21.532 145.539 21.612 145.539 21.71V29.54C145.539 32.404 146.879 34.012 149.965 34.012C150.821 34.012 151.393 33.916 151.637 33.866C151.675 33.8577 151.709 33.8363 151.734 33.8057C151.758 33.775 151.77 33.737 151.769 33.698V31.062ZM127.333 26.35C127.333 30.734 130.419 34.27 134.873 34.27C139.245 34.27 141.513 31.298 142.001 28.63C142.006 28.6048 142.005 28.5789 141.998 28.5542C141.991 28.5295 141.979 28.5065 141.962 28.4871C141.946 28.4676 141.925 28.452 141.902 28.4414C141.878 28.4309 141.853 28.4256 141.827 28.426H138.623C138.583 28.4264 138.544 28.4398 138.513 28.4644C138.481 28.489 138.458 28.5232 138.447 28.562C137.999 30.124 136.655 31.202 134.843 31.202C132.369 31.202 130.797 29.186 130.797 26.35C130.797 23.486 132.369 21.47 134.843 21.47C136.655 21.47 137.999 22.548 138.447 24.11C138.469 24.19 138.541 24.246 138.623 24.246H141.827C141.853 24.2464 141.878 24.2411 141.902 24.2306C141.925 24.22 141.946 24.2044 141.962 24.1849C141.979 24.1655 141.991 24.1425 141.998 24.1178C142.005 24.0931 142.006 24.0672 142.001 24.042C141.513 21.374 139.245 18.402 134.873 18.402C130.419 18.402 127.333 21.938 127.333 26.35ZM121.499 27.49C121.499 29.974 120.161 31.29 118.007 31.29C115.911 31.29 115.067 29.916 115.067 27.842V18.93C115.067 18.8823 115.048 18.8365 115.015 18.8027C114.981 18.769 114.935 18.75 114.887 18.75H111.781C111.734 18.75 111.688 18.769 111.654 18.8027C111.62 18.8365 111.601 18.8823 111.601 18.93V28.31C111.601 31.846 113.495 34.27 117.161 34.27C119.197 34.27 120.587 33.504 121.365 32.554C121.483 32.41 121.763 32.492 121.763 32.678V33.742C121.763 33.842 121.843 33.922 121.943 33.922H124.785C124.885 33.922 124.965 33.842 124.965 33.742V18.93C124.965 18.8823 124.946 18.8365 124.913 18.8027C124.879 18.769 124.833 18.75 124.785 18.75H121.679C121.632 18.75 121.586 18.769 121.552 18.8027C121.518 18.8365 121.499 18.8823 121.499 18.93V27.49ZM105.479 20.14C105.479 20.318 105.233 20.396 105.117 20.26C104.207 19.202 102.703 18.4 100.645 18.4C96.1914 18.4 93.6574 21.996 93.6574 26.35C93.6574 30.676 96.1914 34.27 100.645 34.27C102.729 34.27 104.359 33.54 105.373 32.28C105.487 32.14 105.739 32.216 105.739 32.396V33.742C105.739 33.842 105.819 33.922 105.919 33.922H108.763C108.863 33.922 108.943 33.842 108.943 33.742V12.18C108.943 12.1323 108.924 12.0865 108.891 12.0527C108.857 12.019 108.811 12 108.763 12H105.657C105.61 12 105.564 12.019 105.53 12.0527C105.496 12.0865 105.477 12.1323 105.477 12.18V20.14H105.479ZM105.623 26.35C105.623 29.07 104.023 31.202 101.373 31.202C98.7534 31.202 97.1214 29.068 97.1214 26.35C97.1214 23.574 98.7534 21.47 101.373 21.47C104.021 21.47 105.623 23.574 105.623 26.35ZM84.3994 34.272C89.2334 34.272 92.2594 30.618 92.2594 26.352C92.2594 22.082 89.2354 18.4 84.3994 18.4C79.5974 18.4 76.5694 22.084 76.5694 26.35C76.5694 30.618 79.5974 34.27 84.3994 34.27V34.272ZM80.0334 26.352C80.0334 23.398 81.8954 21.47 84.3994 21.47C86.9334 21.47 88.7954 23.398 88.7954 26.35C88.7954 29.274 86.9334 31.202 84.3994 31.202C81.8954 31.202 80.0334 29.274 80.0334 26.35V26.352ZM76.1714 18.8C76.1715 18.7551 76.1547 18.7118 76.1243 18.6788C76.0939 18.6458 76.0521 18.6255 76.0074 18.622C75.8976 18.6135 75.7875 18.6082 75.6774 18.606C73.5374 18.606 72.2894 19.464 71.6034 20.304C71.4874 20.444 71.2234 20.368 71.2234 20.184V18.93C71.2234 18.8823 71.2044 18.8365 71.1707 18.8027C71.1369 18.769 71.0911 18.75 71.0434 18.75H68.1994C68.1516 18.75 68.1059 18.769 68.0721 18.8027C68.0383 18.8365 68.0194 18.8823 68.0194 18.93V33.742C68.0194 33.842 68.0994 33.922 68.1994 33.922H71.3054C71.4054 33.922 71.4854 33.842 71.4854 33.742V26.03C71.4854 23.106 72.9394 21.82 75.3854 21.82C75.5954 21.82 75.8134 21.84 75.9654 21.854C75.9909 21.8568 76.0168 21.8542 76.0413 21.8465C76.0658 21.8388 76.0885 21.8261 76.1078 21.8091C76.1272 21.7922 76.1428 21.7715 76.1538 21.7482C76.1647 21.725 76.1707 21.6997 76.1714 21.674V18.8ZM54.0314 32.544C54.0314 32.364 54.2794 32.286 54.3974 32.424C55.3114 33.494 56.8334 34.272 58.8654 34.272C63.3474 34.272 65.8814 30.676 65.8814 26.352C65.8814 21.996 63.3474 18.4 58.8654 18.4C56.7954 18.4 55.1634 19.162 54.1294 20.42C54.0174 20.558 53.7694 20.48 53.7694 20.3V18.93C53.7694 18.8823 53.7504 18.8365 53.7167 18.8027C53.6829 18.769 53.6371 18.75 53.5894 18.75H50.7474C50.6996 18.75 50.6539 18.769 50.6201 18.8027C50.5863 18.8365 50.5674 18.8823 50.5674 18.93V39.82C50.5674 39.92 50.6474 40 50.7474 40H53.8534C53.9534 40 54.0334 39.92 54.0334 39.82V32.544H54.0314ZM53.9154 26.35C53.9154 23.544 55.5154 21.41 58.1654 21.41C60.7854 21.41 62.4174 23.544 62.4174 26.35C62.4174 29.07 60.7854 31.202 58.1654 31.202C55.5174 31.202 53.9154 29.068 53.9154 26.35Z" fill="white"/>
</g>
<defs>
<clipPath id="clip0_667_34107">
<rect width="230" height="48" fill="white" transform="translate(0.399414)"/>
</clipPath>
</defs>
</svg>
