<svg width="161" height="48" viewBox="0 0 161 48" fill="none" xmlns="http://www.w3.org/2000/svg">
<g clip-path="url(#clip0_667_34119)">
<path d="M39.6886 9.33862C35.6719 9.33862 34.2621 12.1316 34.2621 14.7385V16.3345H33.4109C32.7991 16.3345 32.3203 16.8133 32.3203 17.4251C32.3203 18.0369 32.7991 18.5157 33.4109 18.5157H34.2621V29.5281C34.2621 30.1665 34.7675 30.6985 35.4325 30.6985C36.0709 30.6985 36.6029 30.1931 36.6029 29.5281V18.5157H39.1831C39.795 18.5157 40.2738 18.0369 40.2738 17.4251C40.2738 16.8133 39.795 16.3345 39.1831 16.3345H36.6029V14.7385C36.6029 13.2754 37.1349 11.5464 39.7152 11.5464C40.327 11.5464 40.8058 11.0676 40.8058 10.4558C40.7792 9.81742 40.3004 9.33862 39.6886 9.33862Z" fill="white"/>
<path d="M48.7334 15.9614C47.0044 15.9614 45.5414 16.6796 44.7168 17.85V17.2382C44.7168 16.5998 44.2114 16.0678 43.5464 16.0678C42.908 16.0678 42.376 16.5732 42.376 17.2382V29.5275C42.376 30.1659 42.8814 30.6979 43.5464 30.6979C44.1848 30.6979 44.7168 30.1925 44.7168 29.5275V22.7445C44.7168 19.8982 46.233 18.1958 48.7334 18.1958C49.3452 18.1958 49.8506 17.6904 49.8506 17.0786C49.8772 16.4668 49.3718 15.9614 48.7334 15.9614Z" fill="white"/>
<path d="M62.9643 21.9996C62.9643 21.3346 62.8579 19.6056 61.8471 18.1692C60.8097 16.6796 59.187 15.9082 56.9792 15.9082C52.8828 15.9082 50.542 18.6214 50.542 23.3562C50.542 28.2507 52.8828 30.8575 57.2718 30.8575C60.2244 30.8575 61.8471 29.3945 62.1397 29.1019C62.3259 28.9157 62.5387 28.6763 62.5387 28.2773C62.5387 27.6921 62.0599 27.2133 61.4747 27.2133C61.1821 27.2133 60.9958 27.2931 60.8096 27.4261C59.9584 28.0645 58.9742 28.7029 57.2984 28.7029C54.665 28.7029 52.9892 26.9739 52.9094 24.1543H61.5545C62.9643 24.1277 62.9643 22.8508 62.9643 21.9996ZM56.9792 18.0362C59.3732 18.0362 60.6234 19.3928 60.6766 22.0528H52.936C53.1488 19.4726 54.5852 18.0362 56.9792 18.0362Z" fill="white"/>
<path d="M70.7848 22.1865C69.0557 21.6013 67.5661 21.0693 67.5661 19.7924C67.5661 18.3826 69.1355 18.1698 70.0665 18.1698C71.7424 18.1698 72.567 18.755 73.232 19.3934C73.4448 19.6062 73.7108 19.7127 74.0034 19.7127C74.5886 19.7127 75.0674 19.2338 75.0674 18.6486C75.0674 18.3294 74.9344 18.1166 74.828 17.957C73.8438 16.6536 72.168 15.9354 70.0665 15.9354C67.0873 15.9354 65.2519 17.425 65.2519 19.7924C65.2519 22.6919 67.8055 23.5697 70.0399 24.3145C71.7424 24.8997 73.2054 25.3785 73.2054 26.6287C73.2054 28.3311 71.3168 28.5971 70.1729 28.5971C68.6301 28.5971 67.4331 28.1183 66.4489 27.1607C66.1563 26.8681 65.8371 26.8149 65.6509 26.8149C65.0657 26.8149 64.5869 27.2937 64.5869 27.8789C64.5869 28.1183 64.6667 28.3045 64.8529 28.5705C65.7307 29.6877 67.7257 30.8315 70.1729 30.8315C73.5246 30.8315 75.5196 29.2621 75.5196 26.6553C75.5196 23.8357 73.0192 22.9579 70.7848 22.1865Z" fill="white"/>
<path d="M84.5902 15.9084C82.9942 15.9084 81.5578 16.5468 80.7598 17.5576V9.68395C80.7598 9.04555 80.2544 8.51355 79.5894 8.51355C78.9509 8.51355 78.4189 9.01895 78.4189 9.68395V29.5543C78.4189 30.1927 78.9243 30.7247 79.5894 30.7247C80.2278 30.7247 80.7598 30.2193 80.7598 29.5543V22.0796C80.7598 19.393 82.0632 18.0364 84.5902 18.0364C87.0374 18.0364 88.0482 19.1536 88.0482 21.8668V29.5543C88.0482 30.1927 88.5536 30.7247 89.2186 30.7247C89.857 30.7247 90.389 30.2193 90.389 29.5543V21.4678C90.3358 17.7704 88.394 15.9084 84.5902 15.9084Z" fill="white"/>
<path d="M109.726 16.0951C109.221 16.0951 108.822 16.3877 108.636 16.8665L105.311 26.3362L102.598 16.8665C102.491 16.4941 102.092 16.0951 101.507 16.0951C100.922 16.0951 100.523 16.4941 100.416 16.8665L97.7032 26.3096L94.3782 16.8399C94.192 16.3611 93.793 16.0951 93.2876 16.0951C92.6492 16.0951 92.1172 16.6005 92.1172 17.2655C92.1172 17.4251 92.1438 17.5847 92.2236 17.7443L96.6658 29.9538C96.852 30.4326 97.251 30.6986 97.7564 30.6986C98.2884 30.6986 98.7406 30.3528 98.8736 29.874L101.48 20.9097L104.087 29.874C104.22 30.3528 104.699 30.6986 105.204 30.6986C105.71 30.6986 106.109 30.406 106.295 29.9272L110.737 17.7177C110.817 17.5581 110.844 17.3719 110.844 17.2123C110.87 16.6005 110.365 16.0951 109.726 16.0951Z" fill="white"/>
<path d="M118.186 15.9082C113.957 15.9082 111.643 18.5682 111.643 23.3562C111.643 28.1975 113.957 30.8575 118.186 30.8575C122.416 30.8575 124.73 28.1975 124.73 23.3562C124.73 18.5416 122.389 15.9082 118.186 15.9082ZM118.186 28.7295C115.367 28.7295 113.983 26.9739 113.983 23.3828C113.983 19.845 115.393 18.0628 118.186 18.0628C120.979 18.0628 122.389 19.845 122.389 23.3828C122.389 26.9739 121.006 28.7295 118.186 28.7295Z" fill="white"/>
<path d="M133.721 15.9614C131.992 15.9614 130.529 16.6796 129.704 17.85V17.2382C129.704 16.5998 129.199 16.0678 128.534 16.0678C127.895 16.0678 127.363 16.5732 127.363 17.2382V29.5275C127.363 30.1659 127.869 30.6979 128.534 30.6979C129.172 30.6979 129.704 30.1925 129.704 29.5275V22.7445C129.704 19.8982 131.22 18.1958 133.721 18.1958C134.333 18.1958 134.838 17.6904 134.838 17.0786C134.838 16.4668 134.333 15.9614 133.721 15.9614Z" fill="white"/>
<path d="M142.552 22.0264L147.367 18.1694C147.766 17.8502 147.819 17.4512 147.819 17.2384C147.819 16.6 147.314 16.068 146.649 16.068C146.463 16.068 146.143 16.0946 145.851 16.3606L139.015 21.9466V9.68395C139.015 9.04555 138.509 8.51355 137.844 8.51355C137.206 8.51355 136.674 9.01895 136.674 9.68395V29.5543C136.674 30.1927 137.179 30.7247 137.844 30.7247C138.483 30.7247 139.015 30.2193 139.015 29.5543V24.7662L140.637 23.4628L145.877 30.1927C146.17 30.5385 146.489 30.7247 146.862 30.7247C147.5 30.7247 148.032 30.2193 148.032 29.5543C148.032 29.3681 148.005 29.1021 147.793 28.8361L142.552 22.0264Z" fill="white"/>
<path d="M155.667 22.1865C153.938 21.6013 152.448 21.0693 152.448 19.7924C152.448 18.3826 154.017 18.1698 154.948 18.1698C156.624 18.1698 157.449 18.755 158.114 19.3934C158.327 19.6062 158.593 19.7127 158.885 19.7127C159.47 19.7127 159.949 19.2338 159.949 18.6486C159.949 18.3028 159.763 18.0634 159.71 17.957C158.726 16.6536 157.05 15.9354 154.948 15.9354C151.969 15.9354 150.134 17.425 150.134 19.7924C150.134 22.6919 152.687 23.5697 154.922 24.3145C156.624 24.8997 158.087 25.3785 158.087 26.6287C158.087 28.3311 156.199 28.5971 155.055 28.5971C153.512 28.5971 152.315 28.1183 151.331 27.1607C151.038 26.8681 150.746 26.8149 150.533 26.8149C149.948 26.8149 149.469 27.2937 149.469 27.8789C149.469 28.1183 149.549 28.3045 149.735 28.5705C150.613 29.6877 152.608 30.8315 155.055 30.8315C158.406 30.8315 160.401 29.2621 160.401 26.6553C160.401 23.8357 157.901 22.9579 155.667 22.1865Z" fill="white"/>
<path d="M0.958984 28.8891C1.41119 31.8417 2.79439 34.5017 4.78941 36.4967L9.44443 31.8417C9.44443 27.1335 11.8916 22.5583 16.2541 20.0312L0.958984 28.8891Z" fill="white"/>
<path d="M9.44443 31.8424C7.13022 31.8424 4.78941 31.2572 2.63479 30.007C2.04959 29.6612 1.49099 29.2888 0.958984 28.8632C1.41119 31.8158 2.79439 34.4758 4.78941 36.4708L9.44443 31.8424Z" fill="white"/>
<path d="M9.44409 31.8419L4.78906 36.4969C6.81067 38.5185 9.44409 39.9017 12.3967 40.3273L21.228 25.0322C18.7275 29.3947 14.1523 31.8419 9.44409 31.8419Z" fill="white"/>
<path d="M11.2795 38.6776C10.0293 36.5229 9.44409 34.1821 9.44409 31.8679L4.78906 36.5229C6.81067 38.5446 9.44409 39.9278 12.3967 40.3534C11.9977 39.8214 11.6253 39.2628 11.2795 38.6776Z" fill="white"/>
<path d="M26.7879 13.9661L16.2809 20.0575C11.9184 22.5845 6.73141 22.3983 2.66158 20.0575C1.49118 22.0525 0.826172 24.3933 0.826172 26.8671C0.826172 27.5587 0.879372 28.2237 0.985772 28.8888C1.51778 29.3144 2.07638 29.6868 2.66158 30.0326C4.81619 31.2828 7.15701 31.868 9.47122 31.868L27.0805 14.2587C26.9741 14.1523 26.8943 14.0459 26.7879 13.9661Z" fill="white"/>
<path d="M2.63503 30.0333C4.78964 31.2835 7.13045 31.8687 9.44467 31.8687C9.44467 27.1605 11.8919 22.5852 16.2543 20.0582L0.932617 28.8895C1.49122 29.2885 2.04982 29.6875 2.63503 30.0333Z" fill="white"/>
<path d="M2.63522 20.0582C1.46481 22.0532 0.799805 24.3941 0.799805 26.8679C0.799805 27.5595 0.853005 28.2245 0.959406 28.8895L16.2811 20.0582C11.8921 22.5586 6.70504 22.399 2.63522 20.0582Z" fill="white"/>
<path d="M27.0803 14.2324C27.0005 14.1526 26.8941 14.0462 26.7877 13.9664C26.6547 13.86 26.5217 13.7536 26.3621 13.6738C25.8567 13.3812 25.2715 13.2216 24.6597 13.2216H14.4452C9.39121 13.2216 5.00218 15.9614 2.63477 20.0312C6.70459 22.372 11.8916 22.5582 16.254 20.0312C11.8916 22.5582 9.44441 27.1334 9.44441 31.8417C14.1526 31.8417 18.7279 29.3945 21.2549 25.032L27.3197 14.525C27.2399 14.4186 27.1601 14.3122 27.0803 14.2324Z" fill="white"/>
<path d="M16.2806 20.0576L26.7877 13.9928C26.6547 13.8864 26.5217 13.78 26.3621 13.7002L2.63477 20.0576C6.70459 22.3984 11.8916 22.558 16.2806 20.0576Z" fill="white"/>
<path d="M24.6597 13.2216H14.4452C9.3912 13.2216 5.00218 15.9614 2.63477 20.0312L26.3621 13.6738C25.8567 13.4078 25.2981 13.2216 24.6597 13.2216Z" fill="white"/>
<path d="M21.2558 25.0317L27.3206 14.5247C27.2408 14.4183 27.161 14.3385 27.0546 14.2321L9.44531 31.8414C9.44531 34.1556 10.0305 36.4964 11.2807 38.651C11.6265 39.2362 11.9989 39.7948 12.4245 40.3268C13.0895 40.4332 13.7545 40.4864 14.4461 40.4864C16.92 40.4864 19.2608 39.8214 21.2558 38.651C18.915 34.5812 18.7288 29.3941 21.2558 25.0317Z" fill="white"/>
<path d="M9.44531 31.8419C9.44531 34.1561 10.0305 36.4969 11.2807 38.6515C11.6265 39.2367 11.9989 39.7953 12.4245 40.3273L21.2558 25.0322C18.7288 29.3947 14.1535 31.8419 9.44531 31.8419Z" fill="white"/>
<path d="M21.2551 25.0322L12.4238 40.3539C13.0888 40.4603 13.7538 40.5135 14.4454 40.5135C16.9193 40.5135 19.2601 39.8485 21.2551 38.6781C18.9143 34.5817 18.7281 29.3947 21.2551 25.0322Z" fill="white"/>
<path d="M27.613 14.9503C27.5332 14.7907 27.4268 14.6577 27.3204 14.5247C27.2406 14.4183 27.1608 14.3385 27.0544 14.2321C26.9746 14.1523 26.8682 14.0459 26.7618 13.9661L16.2813 20.0575C11.9189 22.5845 9.47168 27.1597 9.47168 31.868C14.1799 31.868 18.7551 29.4207 21.2821 25.0583C18.7551 29.4207 18.9413 34.6078 21.2821 38.6776C25.352 36.3102 28.0918 31.9212 28.0918 26.8671V16.6527C28.0652 16.0143 27.9056 15.4291 27.613 14.9503Z" fill="white"/>
<path d="M26.7884 13.9661L16.2813 20.0575C11.9189 22.5845 9.47168 27.1597 9.47168 31.868L27.081 14.2587C26.9746 14.1523 26.8948 14.0459 26.7884 13.9661Z" fill="white"/>
<path d="M9.44531 31.8414C14.1535 31.8414 18.7288 29.3941 21.2558 25.0317L27.3206 14.5247C27.2408 14.4183 27.161 14.3385 27.0546 14.2321L9.44531 31.8414Z" fill="white"/>
<path d="M27.3206 14.5253L21.2558 25.0323C18.7288 29.3948 18.915 34.5818 21.2558 38.6516L27.6132 14.9243C27.5334 14.7913 27.427 14.6583 27.3206 14.5253Z" fill="white"/>
<path d="M21.2549 38.6781C25.3247 36.3107 28.0645 31.9217 28.0645 26.8677V16.6532C28.0645 16.0414 27.9049 15.4562 27.6123 14.9508L21.2549 38.6781Z" fill="white"/>
</g>
<defs>
<clipPath id="clip0_667_34119">
<rect width="160" height="48" fill="white" transform="translate(0.799805)"/>
</clipPath>
</defs>
</svg>
