<svg width="171" height="48" viewBox="0 0 171 48" fill="none" xmlns="http://www.w3.org/2000/svg">
<g clip-path="url(#clip0_667_34159)">
<path d="M4.23675 19.6541C4.23675 17.0138 2.89941 14.8322 0.399414 13H6.21008C7.23439 13.7802 8.06433 14.7869 8.63496 15.9413C9.2056 17.0956 9.50146 18.3664 9.49941 19.6541C9.50146 20.9418 9.2056 22.2125 8.63496 23.3669C8.06433 24.5212 7.23439 25.5279 6.21008 26.3081C8.09675 27.0949 9.17008 29.0151 9.17008 31.7634V37H3.90875V31.7634C3.90875 29.1458 2.65941 27.3136 0.400747 26.3095C2.90075 24.4759 4.23808 22.2957 4.23808 19.6554L4.23675 19.6541ZM15.6394 19.6541C15.6394 17.0138 14.3021 14.8322 11.8021 13H17.6141C18.6381 13.7804 19.4678 14.7871 20.0382 15.9415C20.6086 17.0958 20.9043 18.3665 20.9021 19.6541C20.9043 20.9417 20.6086 22.2123 20.0382 23.3667C19.4678 24.521 18.6381 25.5278 17.6141 26.3081C19.4994 27.0949 20.5741 29.0151 20.5741 31.7634V37H15.3114V31.7634C15.3114 29.1458 14.0607 27.3136 11.8021 26.3095C14.3021 24.4759 15.6394 22.2957 15.6394 19.6554V19.6541ZM27.0447 19.6541C27.0447 17.0138 25.7074 14.8322 23.2074 13H29.0181C30.0424 13.7802 30.8723 14.7869 31.443 15.9413C32.0136 17.0956 32.3095 18.3664 32.3074 19.6541C32.3095 20.9418 32.0136 22.2125 31.443 23.3669C30.8723 24.5212 30.0424 25.5279 29.0181 26.3081C30.9047 27.0949 31.9781 29.0151 31.9781 31.7634V37H26.7154V31.7634C26.7154 29.1458 25.4661 27.3136 23.2074 26.3095C25.7074 24.4759 27.0447 22.2957 27.0447 19.6554V19.6541ZM48.3354 32.6395H44.3461V17.3632H54.1488C58.8634 17.3632 61.1874 19.11 61.1874 21.9677C61.1874 23.9092 60.0474 25.3707 57.9207 26.1135C60.1127 26.4402 61.0994 27.5963 61.0994 29.6699V32.6368H57.0648V29.8445C57.0648 28.0977 56.1874 27.4003 53.8847 27.4003H48.3381V32.6395H48.3354ZM53.9274 19.5887H48.3354V25.176H53.8834C55.9007 25.176 57.1501 24.0626 57.1501 22.317C57.1501 20.5928 55.9901 19.5887 53.9274 19.5887ZM68.1154 17.3632H64.1247V32.6395H68.1154V17.3632ZM80.3514 27.6616H75.4834V32.6368H71.4914V17.3632H80.4381C85.1527 17.3632 87.6314 19.3274 87.6314 22.4704C87.6314 25.7201 85.1101 27.6616 80.3514 27.6616ZM80.2634 19.5887H75.4834V25.436H80.2194C82.2808 25.436 83.5527 24.3893 83.5527 22.4917C83.5527 20.6368 82.2807 19.5887 80.2634 19.5887ZM98.8594 27.6616H93.9914V32.6368H89.9994V17.3632H98.9461C103.661 17.3632 106.139 19.3274 106.139 22.4704C106.139 25.7201 103.617 27.6616 98.8594 27.6616ZM98.7714 19.5887H93.9914V25.436H98.7274C100.789 25.436 102.061 24.3893 102.061 22.4917C102.061 20.6368 100.789 19.5887 98.7714 19.5887ZM112.498 17.3632V30.3673H122.454V32.6395H108.507V17.3632H112.498ZM128.942 17.3632H124.951V32.6395H128.942V17.3632ZM134.951 22.4691V32.6395H132.319V17.3632H135.305L146.181 27.5309V17.3632H148.813V32.6395H145.83L134.951 22.4677V22.4691ZM161.839 19.1527C158.045 19.1527 155.567 21.553 155.567 25.1307C155.567 28.6644 157.935 30.8473 161.619 30.8473H161.882C163.133 30.8473 164.535 30.5846 165.83 30.1712V26.0468H159.383V23.8652H169.733V31.0433C167.585 32.1568 164.338 33.0302 161.707 33.0302H161.357C155.303 33.0302 151.401 29.8432 151.401 25.2174C151.401 20.6355 155.414 16.9711 161.575 16.9711H161.926C164.493 16.9711 167.43 17.7779 169.602 19.0433L168.461 20.8969C166.51 19.8288 164.185 19.1527 162.102 19.1527H161.839Z" fill="white"/>
</g>
<defs>
<clipPath id="clip0_667_34159">
<rect width="170" height="48" fill="white" transform="translate(0.399414)"/>
</clipPath>
</defs>
</svg>
